<svg id="_0536_pr" xmlns="http://www.w3.org/2000/svg" xmlns:xlink="http://www.w3.org/1999/xlink" viewBox="0 0 500 500" data-imageid="marketing-5-24" imageName="Marketing 5" class="illustrations_image" style="width: 146px;"><defs><style>.cls-1_marketing-5-24{opacity:.34;}.cls-1_marketing-5-24,.cls-2_marketing-5-24,.cls-3_marketing-5-24,.cls-4_marketing-5-24,.cls-5_marketing-5-24,.cls-6_marketing-5-24,.cls-7_marketing-5-24,.cls-8_marketing-5-24,.cls-9_marketing-5-24,.cls-10_marketing-5-24,.cls-11_marketing-5-24,.cls-12_marketing-5-24,.cls-13_marketing-5-24,.cls-14_marketing-5-24,.cls-15_marketing-5-24,.cls-16_marketing-5-24,.cls-17_marketing-5-24,.cls-18_marketing-5-24{stroke-width:0px;}.cls-1_marketing-5-24,.cls-3_marketing-5-24{isolation:isolate;}.cls-1_marketing-5-24,.cls-3_marketing-5-24,.cls-18_marketing-5-24{fill:#68e1fd;}.cls-2_marketing-5-24{fill:url(#linear-gradient);}.cls-3_marketing-5-24{opacity:.18;}.cls-4_marketing-5-24{fill:url(#linear-gradient-11-marketing-5-24);}.cls-5_marketing-5-24{fill:url(#linear-gradient-10-marketing-5-24);}.cls-6_marketing-5-24{fill:url(#linear-gradient-4-marketing-5-24);}.cls-7_marketing-5-24{fill:url(#linear-gradient-2-marketing-5-24);}.cls-8_marketing-5-24{fill:url(#linear-gradient-3-marketing-5-24);}.cls-9_marketing-5-24{fill:url(#linear-gradient-8-marketing-5-24);}.cls-10_marketing-5-24{fill:url(#linear-gradient-9-marketing-5-24);}.cls-11_marketing-5-24{fill:url(#linear-gradient-7-marketing-5-24);}.cls-12_marketing-5-24{fill:url(#linear-gradient-5-marketing-5-24);}.cls-13_marketing-5-24{fill:url(#linear-gradient-6-marketing-5-24);}.cls-14_marketing-5-24{fill:#231f20;}.cls-15_marketing-5-24{fill:#c14834;}.cls-16_marketing-5-24{fill:#fff;}.cls-17_marketing-5-24{fill:#ffb4a3;}</style><linearGradient id="linear-gradient-marketing-5-24" x1="253.19" y1="-23.49" x2="114.69" y2="68.85" gradientTransform="translate(564.54 316.72) rotate(-180) scale(1 -1)" gradientUnits="userSpaceOnUse"><stop offset="0" stop-color="#231f20"/><stop offset=".08" stop-color="#231f20" stop-opacity=".69"/><stop offset=".21" stop-color="#231f20" stop-opacity=".32"/><stop offset="1" stop-color="#231f20" stop-opacity="0"/></linearGradient><linearGradient id="linear-gradient-2-marketing-5-24" x1="357.11" y1="7.73" x2="469.46" y2="-229.18" gradientTransform="translate(-50.54 316.72)" xlink:href="#linear-gradient-marketing-5-24"/><linearGradient id="linear-gradient-3-marketing-5-24" x1="172.93" y1="144.93" x2="351.36" y2="369.25" gradientTransform="translate(574.98 123.58) rotate(-172.52) scale(1 -1)" xlink:href="#linear-gradient-marketing-5-24"/><linearGradient id="linear-gradient-4-marketing-5-24" x1="125.2" y1="15.64" x2="61.76" y2="57.93" gradientTransform="translate(90.74 71.24) rotate(80.82)" xlink:href="#linear-gradient-marketing-5-24"/><linearGradient id="linear-gradient-5-marketing-5-24" x1="90.86" y1="190.51" x2="94.5" y2="251.23" gradientTransform="translate(278.22 36.86) rotate(73.74)" gradientUnits="userSpaceOnUse"><stop offset="0" stop-color="#fff"/><stop offset="1" stop-color="#fff" stop-opacity="0"/></linearGradient><linearGradient id="linear-gradient-6-marketing-5-24" x1="72.73" y1="201.26" x2="154.46" y2="304" gradientTransform="translate(278.22 36.86) rotate(73.74)" xlink:href="#linear-gradient-marketing-5-24"/><linearGradient id="linear-gradient-7-marketing-5-24" x1="162.61" y1="-85.09" x2="233.37" y2="-43.29" gradientTransform="translate(-50.54 316.72)" xlink:href="#linear-gradient-marketing-5-24"/><linearGradient id="linear-gradient-8-marketing-5-24" x1="205.45" y1="-73.43" x2="197.78" y2="-111.77" gradientTransform="translate(-50.54 316.72)" xlink:href="#linear-gradient-5-marketing-5-24"/><linearGradient id="linear-gradient-9-marketing-5-24" x1="236.76" y1="-136.31" x2="328.4" y2="-92.27" gradientTransform="translate(-50.54 316.72)" xlink:href="#linear-gradient-marketing-5-24"/><linearGradient id="linear-gradient-10-marketing-5-24" x1="230.87" y1="-132.39" x2="314.79" y2="-102.74" gradientTransform="translate(-50.54 316.72)" xlink:href="#linear-gradient-marketing-5-24"/><linearGradient id="linear-gradient-11-marketing-5-24" x1="249.89" y1="-98.39" x2="249.17" y2="-139.99" gradientTransform="translate(-50.54 316.72)" xlink:href="#linear-gradient-marketing-5-24"/></defs><g id="background_marketing-5-24"><path class="cls-3_marketing-5-24 targetColor" d="M429.66,390.8c-9.22,5.02-18.98,8.98-29.09,11.81-47.66,13.46-96.84,9.16-144.02-3.12-25.6-6.67-53.61-15.75-80.27-14.35-19.27,1-37.77,8.36-57.48,8.27-32.43-.13-55.33-16.7-77.75-39.66-22.93-23.5-25.82-68.99-21.3-100.72,4.88-34.28,20.92-66.66,44.75-90.42,10.68-10.66,22.78-19.51,34.21-29.24,34.52-29.24,64.69-66.95,106.5-82.09,41.82-15.15,88.26-4.77,130.01,10.97,32.12,12.09,65.37,29.42,81.07,61.41,9.13,18.6,11.24,40.26,19.5,59.33,20.72,47.82,60.18,71.49,49.14,129.97-2.04,11.86-5.78,23.36-11.1,34.15-9.84,19.12-25.84,33.66-44.18,43.69Z" style="fill: rgb(104, 225, 253);"/><ellipse class="cls-3_marketing-5-24 targetColor" cx="211.72" cy="360.33" rx="134.64" ry="16.41" style="fill: rgb(104, 225, 253);"/></g><g id="messages_marketing-5-24"><rect class="cls-16_marketing-5-24" x="180.23" y="105.89" width="163.08" height="50.86" rx="19.6" ry="19.6"/><rect class="cls-16_marketing-5-24" x="207.76" y="162.7" width="163.08" height="50.86" rx="19.6" ry="19.6"/><rect class="cls-16_marketing-5-24" x="171.77" y="220.86" width="163.08" height="50.86" rx="19.6" ry="19.6"/><path class="cls-3_marketing-5-24 targetColor" d="M219.31,246.64c0,10.64-8.63,19.27-19.27,19.27s-19.27-8.63-19.27-19.27,8.63-19.27,19.27-19.27h0c10.59-.06,19.21,8.48,19.27,19.06h0v.21Z" style="fill: rgb(104, 225, 253);"/><circle class="cls-1_marketing-5-24 targetColor" cx="199.51" cy="245" r="5.7" style="fill: rgb(104, 225, 253);"/><path class="cls-1_marketing-5-24 targetColor" d="M211.94,261.8c-7.3,5.73-17.66,5.44-24.63-.69,2.2-6.74,9.46-10.42,16.2-8.22,4.14,1.35,7.31,4.71,8.43,8.91Z" style="fill: rgb(104, 225, 253);"/><rect class="cls-3_marketing-5-24 targetColor" x="238.38" y="231.6" width="81.26" height="4.97" style="fill: rgb(104, 225, 253);"/><rect class="cls-3_marketing-5-24 targetColor" x="238.38" y="240.42" width="81.26" height="4.97" style="fill: rgb(104, 225, 253);"/><rect class="cls-3_marketing-5-24 targetColor" x="238.38" y="249.25" width="81.26" height="4.97" style="fill: rgb(104, 225, 253);"/><rect class="cls-3_marketing-5-24 targetColor" x="238.38" y="258.08" width="81.26" height="4.97" style="fill: rgb(104, 225, 253);"/><path class="cls-3_marketing-5-24 targetColor" d="M252.37,188.12c-.06,10.59-8.68,19.12-19.27,19.06s-19.12-8.68-19.06-19.27c.06-10.59,8.68-19.12,19.27-19.06,10.51.06,19.01,8.56,19.06,19.06v.21Z" style="fill: rgb(104, 225, 253);"/><circle class="cls-1_marketing-5-24 targetColor" cx="232.6" cy="186.48" r="5.7" style="fill: rgb(104, 225, 253);"/><path class="cls-1_marketing-5-24 targetColor" d="M245.02,203.28c-7.3,5.73-17.66,5.44-24.63-.69,2.2-6.74,9.46-10.42,16.2-8.22,4.14,1.35,7.31,4.71,8.43,8.91Z" style="fill: rgb(104, 225, 253);"/><rect class="cls-3_marketing-5-24 targetColor" x="271.46" y="173.08" width="81.26" height="4.97" style="fill: rgb(104, 225, 253);"/><rect class="cls-3_marketing-5-24 targetColor" x="271.46" y="181.9" width="81.26" height="4.97" style="fill: rgb(104, 225, 253);"/><rect class="cls-3_marketing-5-24 targetColor" x="271.46" y="190.73" width="81.26" height="4.97" style="fill: rgb(104, 225, 253);"/><rect class="cls-3_marketing-5-24 targetColor" x="271.46" y="199.56" width="81.26" height="4.97" style="fill: rgb(104, 225, 253);"/><path class="cls-3_marketing-5-24 targetColor" d="M226.88,131.31c0,10.64-8.63,19.27-19.27,19.27s-19.27-8.63-19.27-19.27,8.63-19.27,19.27-19.27h0c10.64,0,19.27,8.63,19.27,19.27Z" style="fill: rgb(104, 225, 253);"/><circle class="cls-1_marketing-5-24 targetColor" cx="207.07" cy="129.68" r="5.7" style="fill: rgb(104, 225, 253);"/><path class="cls-1_marketing-5-24 targetColor" d="M219.51,146.49c-7.31,5.74-17.67,5.44-24.64-.71,2.2-6.75,9.45-10.44,16.19-8.24,4.15,1.35,7.34,4.72,8.45,8.95h0Z" style="fill: rgb(104, 225, 253);"/><rect class="cls-3_marketing-5-24 targetColor" x="245.94" y="116.28" width="81.26" height="4.97" style="fill: rgb(104, 225, 253);"/><rect class="cls-3_marketing-5-24 targetColor" x="245.94" y="125.11" width="81.26" height="4.97" style="fill: rgb(104, 225, 253);"/><rect class="cls-3_marketing-5-24 targetColor" x="245.94" y="133.92" width="81.26" height="4.97" style="fill: rgb(104, 225, 253);"/><rect class="cls-3_marketing-5-24 targetColor" x="245.94" y="142.75" width="81.26" height="4.97" style="fill: rgb(104, 225, 253);"/><circle class="cls-18_marketing-5-24 targetColor" cx="334.6" cy="106.57" r="7.4" style="fill: rgb(104, 225, 253);"/></g><g id="message_icon_marketing-5-24"><path class="cls-18_marketing-5-24 targetColor" d="M276.29,308.72l67.58,30.83c2.99,1.36,6.52.05,7.89-2.94l17.28-37.86c.33-.7.52-1.47.54-2.25.09-2.41-1.28-4.64-3.47-5.65l-67.58-30.83c-2.94-1.42-6.47-.19-7.89,2.75-.02.04-.04.09-.06.13l-17.29,37.89c-1.38,2.98-.07,6.52,2.91,7.89,0,0,.01,0,.02,0l.08.04Z" style="fill: rgb(104, 225, 253);"/><path class="cls-2_marketing-5-24" d="M276.29,308.72l67.58,30.83c2.99,1.36,6.52.05,7.89-2.94l17.28-37.86c.33-.7.52-1.47.54-2.25.09-2.41-1.28-4.64-3.47-5.65l-67.58-30.83c-2.94-1.42-6.47-.19-7.89,2.75-.02.04-.04.09-.06.13l-17.29,37.89c-1.38,2.98-.07,6.52,2.91,7.89,0,0,.01,0,.02,0l.08.04Z"/><path class="cls-18_marketing-5-24 targetColor" d="M273.17,307.31l67.58,30.83c2.99,1.36,6.51.05,7.89-2.93l17.28-37.87c.33-.7.51-1.46.54-2.24.09-2.41-1.28-4.65-3.48-5.65l-67.56-30.83c-2.99-1.36-6.52-.05-7.89,2.94l-17.29,37.87c-1.36,2.99-.04,6.51,2.94,7.88Z" style="fill: rgb(104, 225, 253);"/><polygon class="cls-18_marketing-5-24 targetColor" points="368.75 293.24 348.05 238.87 293.45 260.08 363.47 302.71 368.75 293.24" style="fill: rgb(104, 225, 253);"/><path class="cls-7_marketing-5-24" d="M290.33,258.72l21.13,46.25,57.31-11.7-20.7-54.37s-56.21,19.03-57.75,19.82Z"/><polygon class="cls-8_marketing-5-24" points="331.16 301.41 336.68 336.29 273.18 307.31 303.88 288.39 311.44 304.94 331.16 301.41"/><path class="cls-18_marketing-5-24 targetColor" d="M87.73,211.32l-18.86-28.26c-.88-1.24-.59-2.95.65-3.83,0,0,.02-.01.03-.02h0l15.93-10.55c.3-.2.63-.33.98-.4,1.09-.22,2.19.24,2.81,1.16l18.86,28.26c.45.68.57,1.52.33,2.3-.18.61-.57,1.13-1.09,1.48l-15.87,10.62c-1.24.83-2.92.5-3.76-.73v-.03Z" style="fill: rgb(104, 225, 253);"/><path class="cls-6_marketing-5-24" d="M87.73,211.32l-18.86-28.26c-.88-1.24-.59-2.95.65-3.83,0,0,.02-.01.03-.02h0l15.93-10.55c.3-.2.63-.33.98-.4,1.09-.22,2.19.24,2.81,1.16l18.86,28.26c.45.68.57,1.52.33,2.3-.18.61-.57,1.13-1.09,1.48l-15.87,10.62c-1.24.83-2.92.5-3.76-.73v-.03Z"/><path class="cls-18_marketing-5-24 targetColor" d="M88.59,212.64l-18.86-28.26c-.84-1.26-.5-2.95.76-3.79l15.87-10.51c.3-.2.63-.33.98-.4,1.08-.21,2.19.24,2.8,1.16l18.86,28.26c.84,1.25.5,2.94-.75,3.78l-15.88,10.57c-1.26.82-2.95.46-3.77-.8,0,0,0,0,0-.01Z" style="fill: rgb(104, 225, 253);"/><path class="cls-12_marketing-5-24" d="M109.34,201.34l-22.46-6.18.45-25.59c1.08-.21,2.19.24,2.8,1.16l18.86,28.26c.48.69.61,1.56.35,2.35Z"/><polygon class="cls-13_marketing-5-24" points="87.04 185.99 70.88 186.03 88.59 212.64 94.93 197.37 86.9 195.16 87.04 185.99"/></g><g id="character_marketing-5-24"><path class="cls-18_marketing-5-24 targetColor" d="M126.89,355.07c-1.14.87-2.15,2.38-1.54,3.7s2.24,1.5,3.62,1.54c5.25.14,10.49-.33,15.63-1.39.15-.01.3-.08.41-.18.1-.13.15-.3.14-.46.38-3.2.54-6.42.49-9.64-2.83-.8-6.1.17-8.63,1.46-3.25,1.61-7.23,2.72-10.12,4.96Z" style="fill: rgb(104, 225, 253);"/><path class="cls-18_marketing-5-24 targetColor" d="M180.31,353.13c1.14.89,2.16,2.39,1.55,3.7s-2.25,1.52-3.64,1.54c-5.25.13-10.5-.35-15.63-1.43-.15-.01-.3-.08-.41-.18-.09-.14-.14-.3-.13-.46-.39-3.2-.56-6.42-.49-9.64,2.83-.81,6.1.17,8.63,1.46,3.25,1.66,7.22,2.77,10.11,5Z" style="fill: rgb(104, 225, 253);"/><path class="cls-14_marketing-5-24" d="M137.86,262.37v87.17s4.86,1.73,7.81,0l9.17-73.43,6.42,72.23s5.14,1.21,8.99-.53l3.85-86.08s-22.77-5.13-36.25.64Z"/><path class="cls-18_marketing-5-24 targetColor" d="M204.02,215.04c-2.45,9.85-2.42,14.67-6.15,24.11-1,2.57-2.57,5.4-5.27,5.72-2.06.24-3.94-1.13-5.58-2.42-4.48-3.57-8.97-7.14-13.48-10.71-.45,10.66-.11,21.34,1.03,31.95-6.22,3.28-12.77,6.63-19.8,6.42-4.42-.31-8.73-1.49-12.69-3.46-.96-.41-1.9-.84-2.84-1.28-.34-.12-.64-.33-.86-.62-1.28-2-.68-7.04-.78-9.42-.15-3.62-.33-7.26-.51-10.89-.08-1.28-.14-2.48-.23-3.73-.32-5.9-.69-11.77-1.28-17.66.1,1.01-.91,2.84-1.28,3.85-.48,1.59-.95,3.21-1.44,4.82-.52,1.46-.95,2.95-1.28,4.47-.28,1.84.6,3.6.49,5.49-.02,1.6-.78,3.1-2.06,4.06-1.99,1.28-4.6.49-6.77-.44-1.21-.36-2.27-1.12-2.99-2.16-.47-1.18-.54-2.48-.19-3.7,1.01-6.83,2.79-13.53,5.31-19.96,2.17-5.63,4.3-11.77,10.28-14.29,3.1-1.28,6.78-1.37,10.1-1.44l11.67-.23c3.7-.26,7.42.03,11.04.86,4.74,1.28,7.71,4.83,10.39,8.75,3.34,4.92,6.47,9.98,9.4,15.19,2.08-6.92,1.86-8.71,4.38-15.48,3.88.31,7.71,1.05,11.42,2.2Z" style="fill: rgb(104, 225, 253);"/><path class="cls-11_marketing-5-24" d="M154.28,242.58c-1.31,1.72-3.35,2.71-5.51,2.69-1.72.06-3.43.21-5.14.45-.47.05-.92.23-1.28.53-.27.33-.45.72-.53,1.13-1.61,6-.14,12.33.37,18.51.05.25.02.52-.08.76h0c-.96-.41-1.9-.84-2.84-1.28-.34-.12-.64-.33-.86-.62-1.28-2-.68-7.04-.78-9.42-.15-3.62-.33-7.26-.51-10.89-.08-1.28-.14-2.48-.23-3.73.3-.08.6-.13.9-.18l8.29-1.41c2.04-.36,5.14-1.57,7.18-.8s1.98,2.74,1.03,4.27Z"/><path class="cls-17_marketing-5-24" d="M145.38,203.72c1.95-1.72,3.75-4.89,3.39-7.59s-2.33-5.54-3.47-8.09c-.58-1.28-1.16-2.86-.46-4.12.41-.56.88-1.08,1.4-1.55,1.18-1.28,1.5-3.16,2.29-4.74,1.28-2.5,3.74-4.17,6.53-4.46,2.8-.2,5.5,1.14,7.03,3.49.69,1.24,1.16,2.59,1.37,4,.73,3.74.78,7.58.14,11.33-.18,1.3-.62,2.56-1.28,3.69-.68,1.14-1.87,1.88-3.19,1.99-.68,0-1.46-.15-1.94.32-.22.23-.35.53-.39.85-.18.91-.07,1.86.32,2.71.45,1.07.78,2.19.98,3.34.26,1.22.42,2.69-.51,3.49-.59.41-1.3.61-2.02.57-4.03-.02-7.81-1.96-10.19-5.22Z"/><polygon class="cls-9_marketing-5-24" points="158.2 225.35 166.99 197.08 126.36 207.16 148.6 238.12 158.2 225.35"/><path class="cls-15_marketing-5-24" d="M166.29,170.3c-.24-.88-.71-1.68-1.36-2.31-1.85-1.86-4.56-2.58-7.09-1.89-1.18.33-2.27.98-3.44,1.37-2.05.46-4.14.75-6.24.85-2.08.3-4.3,1.14-5.28,3.01-.5,1.3-.8,2.66-.9,4.05-.69,3.53-3.22,7.04-1.93,10.41s6.22,5.95,8.23,8.77c.51-1.21-.1-3.62-.63-4.83-.91.04-1.73-.52-2.03-1.37-.39-.64-.61-1.37-.63-2.12-.09-.76.18-1.51.75-2.03.73-.34,1.6-.08,2.03.6.39.68.61,1.45.62,2.24,2.57-2.45-.24-7.43,2.07-10.14,1.77.64,3.59,1.15,5.43,1.53,1.95.17,3.92-.08,5.77-.75,2.61-1,5.33-4.48,4.64-7.39Z"/><path class="cls-18_marketing-5-24 targetColor" d="M125.3,235.59c-1.21.5-2.26,1.33-3.02,2.4-.9,1.52-.93,3.4-.09,4.95.87,1.52,2.31,2.62,4.01,3.04,2.42.64,4.97,0,7.4-.62l8.67-2.24c.23-.04.45-.14.62-.31.15-.3.15-.66,0-.96-.55-2.11-.91-4.39-1.67-6.42-.68-1.8-1.49-1.79-3.39-1.84-4.16-.08-8.7.12-12.53,1.99Z" style="fill: rgb(104, 225, 253);"/><path class="cls-17_marketing-5-24" d="M197.23,216.1c.37.02.73-.06,1.05-.24.23-.17.41-.4.54-.66.58-1,.89-2.13.9-3.29-.04-.56.02-1.13.17-1.67.17-.35.39-.69.63-1,.88-1.69,1.2-3.62.89-5.5,0-.72-.14-1.43-.41-2.09-.52-1.01-1.46-1.75-2.57-2.02-1.1-.27-2.23-.38-3.35-.32-.73-.06-1.46.05-2.13.33-.98.49-1.49,2.69-1.68,3.7-.3,1.67.02,3.4.91,4.84.29.4.54.83.75,1.28.54,1.46-.73,3.56.21,4.83,1.07,1.13,2.56,1.77,4.11,1.8Z"/><path class="cls-18_marketing-5-24 targetColor" d="M214.25,179.3v30.6c-1.02-1.16-2.16-2.22-3.38-3.16-5.17-4.11-11.5-6.48-18.1-6.76-2.38-.04-4.52-1.44-5.52-3.6h0c-.48-1.07-.66-2.25-.53-3.42.48-3.04,3.16-5.25,6.24-5.14,3.47-.14,10.28-1.43,21.29-8.53Z" style="fill: rgb(104, 225, 253);"/><ellipse class="cls-18_marketing-5-24 targetColor" cx="215.65" cy="194.56" rx="7.89" ry="15.28" style="fill: rgb(104, 225, 253);"/><ellipse class="cls-10_marketing-5-24" cx="215.65" cy="194.56" rx="7.89" ry="15.28"/><path class="cls-5_marketing-5-24" d="M208.5,188.12l7.16,2.24v7.71l-7.22,2.65c-.84-4.16-.82-8.44.06-12.59Z"/><path class="cls-18_marketing-5-24 targetColor" d="M194.7,207.33h4.46v3.92c0,1.23-1,2.24-2.24,2.24h0c-1.23,0-2.24-1-2.24-2.24h0v-3.92h.01Z" style="fill: rgb(104, 225, 253);"/><ellipse class="cls-18_marketing-5-24 targetColor" cx="215.65" cy="194.21" rx="1.81" ry="3.85" style="fill: rgb(104, 225, 253);"/><path class="cls-4_marketing-5-24" d="M210.87,206.67c-5.17-4.11-11.5-6.48-18.1-6.76-2.38-.04-4.52-1.44-5.52-3.6.17.18,2.08,2,7.46,1.09,5.65-.96,13.46,1.9,13.46,1.9l2.7,7.36Z"/><path class="cls-14_marketing-5-24" d="M153.45,239.95h-5.42c-.84.04-1.54-.61-1.58-1.45,0,0,0,0,0,0-.03-.17-.03-.34,0-.51l2.57-11.34c.27-1.12,1.25-1.92,2.4-1.97h5.41c.84-.03,1.55.63,1.58,1.48,0,0,0,0,0,0,.03.16.03.33,0,.49l-2.57,11.34c-.27,1.12-1.24,1.92-2.39,1.97Z"/><path class="cls-17_marketing-5-24" d="M146.17,231.74c.17-.27.36-.52.57-.76.29-.29.68-.47,1.09-.48.09,0,.18.02.24.08.04.06.06.12.08.19.06.37.09.75.18,1.1.07.37.26.71.54.96.58.48,1.7.17,2.36.09l2.83-.32c.58-.15,1.2-.04,1.68.32.55.54.31,1.45,0,2.17-.86,2.13-1.99,4.46-4.15,5.27-2.57.98-5.45-.6-8.16-.18-1.52.23-3.2.81-4.1-.87-.54-.93-.48-2.09.15-2.97.83-.73,1.8-1.31,2.84-1.68.88-.46,1.71-1,2.48-1.62.41-.32.79-.66,1.14-1.04l.22-.27Z"/></g></svg>