<svg version="1.1" id="Layer_1" xmlns="http://www.w3.org/2000/svg" xmlns:xlink="http://www.w3.org/1999/xlink" x="0px" y="0px" viewBox="0 0 500 500" style="width: 141px;" xml:space="preserve" data-imageid="radio-presenter-54" imageName="Radio Presenter" class="illustrations_image">
<style type="text/css">
	.st0_radio-presenter-54{fill:#68E1FD;}
	.st1_radio-presenter-54{fill:#231F20;}
	.st2_radio-presenter-54{fill:#FFFFFF;}
	.st3_radio-presenter-54{fill:#D1D3D4;}
	.st4_radio-presenter-54{fill:none;}
</style>
<g id="Character_radio-presenter-54">
	<path class="st0_radio-presenter-54 targetColor" d="M330.5,232.4l30.5-11.1c-1.1-1.6-19.7-36-34.1-43.2c-12.7-8.4-36.1-6.8-62.7-5c-8.5,0.4-16.9,2.2-24.9,5.2&#10;&#9;&#9;c-29.9,11.9-34.2,51.3-34.2,51.3l27.5,9.5c0,0-4.5,53.6-8.7,81.6c0,0,34.5,20.3,109.7,7.9C333.6,328.5,330.6,240.3,330.5,232.4z" style="fill: rgb(81, 224, 147);"/>
	<path class="st1_radio-presenter-54" d="M268.6,195.5c0,0,1.4,26.8,10.9,32.6s22.6-41.9,22.6-41.9L268.6,195.5z"/>
	<path class="st1_radio-presenter-54" d="M281.2,229.3c-0.7,0-1.4-0.2-2-0.6c-9.8-5.9-11.2-32-11.2-33.1c0-0.3,0.2-0.6,0.5-0.7l33.5-9.4&#10;&#9;&#9;c0.2-0.1,0.5,0,0.7,0.2c0.2,0.2,0.2,0.4,0.2,0.7c-0.4,1.6-10.8,38.9-20,42.6C282.3,229.2,281.7,229.3,281.2,229.3z M269.3,196.1&#10;&#9;&#9;c0.3,3.8,2.2,26.3,10.5,31.4c0.7,0.5,1.6,0.5,2.4,0.2c7.8-3.1,17-34,18.9-40.5L269.3,196.1z"/>
	<path class="st1_radio-presenter-54" d="M264.1,150.9c0.1-4.3-1.6-8.4-4.6-11.4v-2.7H253c-6.1,0-11.1,6.3-11.1,14s5,14,11.1,14h6.5v-2.7&#10;&#9;&#9;C262.5,159.2,264.2,155.1,264.1,150.9z"/>
	<path class="st1_radio-presenter-54" d="M259.5,165.6H253c-6.5,0-11.8-6.6-11.8-14.7s5.3-14.7,11.8-14.7h6.5c0.4,0,0.7,0.3,0.7,0.7v2.4&#10;&#9;&#9;c6.1,6.6,6.1,16.8,0,23.4v2.4C260.2,165.3,259.9,165.6,259.5,165.6C259.5,165.6,259.5,165.6,259.5,165.6z M253,137.5&#10;&#9;&#9;c-5.7,0-10.4,6-10.4,13.3s4.7,13.3,10.4,13.3h5.8v-2c0-0.2,0.1-0.4,0.2-0.5c5.8-6.1,5.8-15.6,0-21.7c-0.1-0.1-0.2-0.3-0.2-0.5v-2&#10;&#9;&#9;L253,137.5z"/>
	<path class="st2_radio-presenter-54" d="M301.5,102.3c-0.3-0.2-0.5-0.3-0.8-0.4c-2.1-0.9-4.3-1.7-6.5-2.2l-4.1-1.1c-1.7-0.5-3-1.1-4.8-0.9&#10;&#9;&#9;c-1.1,0.1-4.6,2.6-5.2,2.4c-3-0.9-6.3,0.4-7.8,3.1c-5.3-3.6-12.5-2.1-16.1,3.2c-0.8,1.1-1.3,2.4-1.6,3.7c-3-0.8-6.1-0.6-8.9,0.4&#10;&#9;&#9;c-5.9,2.4-7.8,11.1-5.7,16.7c1.3,3.5,4.2,6.2,7.8,7.2c-8.1,11.4,8.3,16.2,15.6,19.5c6.6,2.9,13.7,5,20.9,4.5&#10;&#9;&#9;c7-0.5,13.6-3.7,18.4-8.9c3-3.3,9.5-8.2,6.9-13.3c-0.4-0.6-0.7-1.3-0.6-2.1c0.2-0.5,0.5-1,1-1.3c4.2-4.1,3.4-12-1.4-15.3&#10;&#9;&#9;c2.3-1.2,2.1-4.7,0.9-7C307.6,107,304.9,104.1,301.5,102.3z"/>
	<path class="st1_radio-presenter-54" d="M282,159c-5.8,0-12-1.5-19.1-4.6c-0.8-0.4-1.7-0.7-2.7-1.1c-5.7-2.3-13.6-5.6-15.2-11.1&#10;&#9;&#9;c-0.7-2.3-0.2-4.8,1.5-7.5c-3.4-1.3-6.1-4-7.3-7.4c-2.2-6,0-15,6.1-17.6c2.8-1,5.8-1.2,8.7-0.6c2-6.5,8.9-10.1,15.4-8.1&#10;&#9;&#9;c0.9,0.3,1.8,0.7,2.6,1.1c1.9-2.6,5.1-3.7,8.2-2.8c0.7-0.3,1.4-0.6,2.1-1.1c0.9-0.6,1.9-1,2.9-1.3c1.3-0.1,2.7,0.1,3.9,0.6&#10;&#9;&#9;c0.4,0.1,0.7,0.2,1.1,0.3l4.1,1.1c2.3,0.5,4.5,1.3,6.7,2.3c0.3,0.1,0.6,0.3,0.8,0.4c3.4,1.9,6.2,4.8,8,8.3c1.2,2.5,1.4,5.7-0.4,7.4&#10;&#9;&#9;c2.1,1.8,3.4,4.5,3.6,7.3c0.4,3.1-0.7,6.3-2.9,8.5l-0.1,0.1c-0.3,0.2-0.5,0.5-0.6,0.9c0,0.5,0.1,0.9,0.4,1.3l0.2,0.3&#10;&#9;&#9;c2.4,4.7-2.1,9.1-5.3,12.4c-0.6,0.6-1.2,1.2-1.7,1.7c-4.9,5.3-11.7,8.5-18.9,9.1C283.4,159,282.7,159,282,159z M250.4,110.2&#10;&#9;&#9;c-1.6,0-3.1,0.3-4.6,0.8c-5.4,2.2-7.3,10.3-5.3,15.8c1.2,3.3,3.9,5.8,7.3,6.8c0.2,0.1,0.4,0.2,0.5,0.4c0.1,0.2,0,0.5-0.1,0.6&#10;&#9;&#9;c-1.9,2.6-2.4,4.9-1.8,7.1c1.4,4.9,8.9,8,14.4,10.2c1,0.4,1.9,0.8,2.7,1.1c7.7,3.4,14.5,4.9,20.6,4.4c6.9-0.5,13.3-3.6,17.9-8.6&#10;&#9;&#9;c0.5-0.5,1.1-1.1,1.7-1.8c3.1-3.1,7-6.9,5.1-10.7l-0.1-0.3c-0.9-1.1-0.8-2.8,0.3-3.7c0.1,0,0.1-0.1,0.2-0.1l0.1-0.1&#10;&#9;&#9;c3.6-4,3.2-10.1-0.8-13.7c-0.2-0.2-0.4-0.3-0.6-0.5c-0.2-0.1-0.3-0.4-0.3-0.6c0-0.2,0.2-0.5,0.4-0.6c2-1,1.5-4.2,0.6-6.1&#10;&#9;&#9;c-1.6-3.3-4.2-6-7.4-7.7l0,0c-0.2-0.1-0.5-0.3-0.8-0.4c-2.1-0.9-4.2-1.7-6.4-2.2l-4.1-1.1c-0.4-0.1-0.8-0.2-1.2-0.3&#10;&#9;&#9;c-1.1-0.4-2.2-0.6-3.4-0.5c-0.8,0.3-1.6,0.7-2.4,1.1c-1.9,1-2.6,1.4-3.1,1.2c-2.7-0.8-5.6,0.3-7,2.8c-0.1,0.2-0.3,0.3-0.5,0.3&#10;&#9;&#9;c-0.2,0-0.4,0-0.5-0.1c-5-3.3-11.8-2-15.1,3c-0.7,1.1-1.2,2.2-1.5,3.5c-0.1,0.4-0.5,0.6-0.8,0.5&#10;&#9;&#9;C253.1,110.4,251.7,110.2,250.4,110.2L250.4,110.2z"/>
	<path class="st1_radio-presenter-54" d="M295.5,138.5c0,0,2.1-18.8-4.7-26.8s-18.5-8.7-18.5-8.7s3.7-3.6,7.8-3.1c0,0,11.5,4,18.2,12.2&#10;&#9;&#9;s5.3,25.2,5.3,25.2L295.5,138.5z"/>
	<path class="st1_radio-presenter-54" d="M295.5,139.2c-0.2,0-0.4-0.1-0.5-0.2c-0.2-0.2-0.2-0.4-0.2-0.6c0-0.2,2-18.6-4.5-26.2s-18-8.4-18.1-8.4&#10;&#9;&#9;c-0.4,0-0.7-0.3-0.7-0.7c0-0.2,0.1-0.3,0.2-0.5c0.2-0.2,4-3.9,8.4-3.3h0.1c0.5,0.2,11.8,4.1,18.5,12.4c6.9,8.5,5.5,25,5.4,25.7&#10;&#9;&#9;c0,0.3-0.3,0.6-0.6,0.6l-8,1.1L295.5,139.2z M274,102.6c3.5,0.5,11.9,2.4,17.4,8.7c6.1,7.1,5.3,22.5,5,26.4l6.6-0.9&#10;&#9;&#9;c0.2-2.9,0.7-17-5.1-24.2c-6.2-7.7-16.9-11.6-17.8-12C277.8,100.6,275.7,101.3,274,102.6z"/>
	<path class="st2_radio-presenter-54" d="M269.4,175.4l-0.8,20.1c0,0,8.1,11.4,20.5,6.1s13-15.5,13-15.5l-2.2-21.1l-1.4-13c-0.1-1,0.1-3.1-0.4-4&#10;&#9;&#9;c-0.6-1.2-2.5-1.9-3.5-3c-1-1.1-1.8-2.4-2.3-3.9c-1-2.9-0.6-6.1,1-8.8c-2.1-0.2-4.1-1.3-5.3-3.1c-1.2-1.8-1.6-4.1-1-6.2&#10;&#9;&#9;c-0.6,0.7-1.2,1.4-1.8,2.2c-0.9,1.3-2.2,2.1-3.7,2.4c-2,0.2-3.9-0.8-5-2.5c-0.2,2.3-2.4,4-4.7,4.4s-4.6-0.4-6.8-1.1&#10;&#9;&#9;c-1.1,5.3-5.1,9.6-10.3,11.1c-2.3,8-1.9,19.1,0.8,27C258.5,176.3,269.4,175.4,269.4,175.4z"/>
	<path class="st1_radio-presenter-54" d="M282.7,203.7c-9,0-14.6-7.7-14.6-7.8c-0.1-0.1-0.1-0.3-0.1-0.4l0.8-19.4c-2.6,0-11.2-0.8-14.1-9.4&#10;&#9;&#9;c-2.7-8.2-3-19.5-0.8-27.4c0.1-0.2,0.3-0.4,0.5-0.5c5-1.4,8.8-5.4,9.8-10.5c0-0.2,0.2-0.4,0.3-0.5c0.2-0.1,0.4-0.1,0.6-0.1&#10;&#9;&#9;c2.3,0.8,4.4,1.4,6.5,1.1c1.9-0.3,4-1.7,4.1-3.7c0-0.3,0.2-0.6,0.5-0.6c0.3-0.1,0.6,0.1,0.8,0.3c0.9,1.5,2.6,2.3,4.3,2.1&#10;&#9;&#9;c1.3-0.2,2.5-1,3.3-2.1l0.5-0.7c0.4-0.6,0.8-1.1,1.3-1.6c0.3-0.3,0.7-0.3,1,0c0.2,0.2,0.2,0.4,0.2,0.6c-0.5,1.9-0.2,4,0.9,5.7&#10;&#9;&#9;c1.1,1.6,2.9,2.6,4.8,2.8c0.2,0,0.5,0.2,0.6,0.4c0.1,0.2,0.1,0.5,0,0.7c-2.3,3.8-1.8,8.6,1.2,11.8c0.4,0.4,0.9,0.8,1.5,1.1&#10;&#9;&#9;c0.9,0.5,1.7,1.2,2.2,2c0.4,1,0.5,2.1,0.4,3.1c0,0.4,0,0.8,0,1.1l3.5,34.1c0,0.1-0.6,10.8-13.4,16.2&#10;&#9;&#9;C287.3,203.2,285,203.7,282.7,203.7z M269.3,195.3c1.1,1.5,8.5,10.4,19.6,5.7c11.9-5,12.5-14.8,12.5-14.9l-3.5-34&#10;&#9;&#9;c0-0.3,0-0.8,0-1.2c0.1-0.8,0-1.7-0.3-2.5c-0.5-0.6-1-1.1-1.7-1.5c-0.6-0.4-1.2-0.8-1.7-1.3c-3.2-3.4-4-8.4-1.9-12.6&#10;&#9;&#9;c-1.9-0.5-3.7-1.6-4.8-3.2c-0.9-1.3-1.4-2.8-1.4-4.4l-0.3,0.4c-1,1.4-2.5,2.4-4.2,2.6c-1.8,0.2-3.5-0.4-4.8-1.6&#10;&#9;&#9;c-1,1.9-2.9,3.3-5,3.5c-2.2,0.2-4.4-0.1-6.4-0.9c-1.4,5.1-5.2,9.1-10.3,10.7c-2,8.7-1.7,17.7,0.9,26.2c3,9.1,13,8.4,13.4,8.4&#10;&#9;&#9;c0.4,0,0.7,0.2,0.7,0.6c0,0,0,0.1,0,0.1L269.3,195.3z"/>
	<path class="st1_radio-presenter-54" d="M269,186c4.7,0.1,9.1-2,11.9-5.8c4.8-6.4,3.6-11,3.6-11s-6.2,6.5-15,6.2L269,186z"/>
	<path class="st1_radio-presenter-54" d="M269.6,186.7c-0.4,0-0.6,0-0.6,0c-0.4,0-0.6-0.4-0.6-0.7l0.4-10.6c0-0.4,0.3-0.7,0.7-0.7&#10;&#9;&#9;c8.4,0.2,14.4-5.9,14.5-6c0.3-0.3,0.7-0.3,1,0c0.1,0.1,0.2,0.2,0.2,0.3c0.1,0.2,1.2,4.9-3.7,11.6&#10;&#9;&#9;C278.6,184.4,274.3,186.6,269.6,186.7z M270.1,176.1l-0.4,9.2c4.2-0.1,8.1-2.2,10.6-5.6c3-4.1,3.6-7.4,3.6-9.1&#10;&#9;&#9;C281.8,172.5,276.7,176.1,270.1,176.1L270.1,176.1z"/>
	<path class="st2_radio-presenter-54" d="M271,143.4c0,0-5.5,11.1-3.7,12.6s6.2-0.2,6.2-0.2"/>
	<path class="st1_radio-presenter-54" d="M269.6,157.4c-1,0.1-1.9-0.2-2.7-0.8c-2-1.7,1.8-10,3.5-13.5c0.2-0.3,0.6-0.5,0.9-0.3c0.3,0.2,0.5,0.6,0.3,0.9&#10;&#9;&#9;c-2.8,5.5-4.6,11.1-3.8,11.8c1.2,1.1,4.5,0.1,5.5-0.3c0.4-0.1,0.8,0,0.9,0.4c0,0,0,0,0,0c0.1,0.4,0,0.8-0.4,0.9c0,0,0,0,0,0&#10;&#9;&#9;C272.5,157,271.1,157.3,269.6,157.4z"/>
	
		<ellipse transform="matrix(0.9773 -0.2118 0.2118 0.9773 -23.6667 62.3508)" class="st1_radio-presenter-54" cx="279.2" cy="141.6" rx="1.7" ry="2.4"/>
	
		<ellipse transform="matrix(8.559088e-02 -0.9963 0.9963 8.559088e-02 97.4449 393.7829)" class="st1_radio-presenter-54" cx="263.3" cy="143.8" rx="2.4" ry="1.7"/>
	<path class="st1_radio-presenter-54" d="M270.4,171.3c-1.4,0-2.8-0.4-3.8-1.3c-3.4-3.1-3.1-9.1-3.1-9.3c0-0.3,0.3-0.6,0.6-0.7&#10;&#9;&#9;c15.4-1.8,15.6-1.7,15.9-1.4c0.1,0.1,0.2,0.3,0.2,0.5l0,0c0,2.4-0.6,4.7-1.6,6.9c-1.3,2.7-3.8,4.6-6.8,5.1&#10;&#9;&#9;C271.3,171.3,270.9,171.3,270.4,171.3z M264.9,161.4c0,1.5,0.3,5.5,2.6,7.6c1.2,0.9,2.7,1.2,4.1,0.9c2.5-0.5,4.6-2.1,5.8-4.4&#10;&#9;&#9;c0.9-1.7,1.4-3.6,1.4-5.5C276.6,160.1,269.7,160.8,264.9,161.4z M279.5,159.2L279.5,159.2z M279.5,159.2L279.5,159.2z"/>
	<path class="st1_radio-presenter-54" d="M277.9,165.7c-2.8,5.2-8.5,5.9-10.9,3.8c0.8-2,2.1-4,4.2-4.6C273.5,164.4,275.9,164.7,277.9,165.7z"/>
	<path class="st1_radio-presenter-54" d="M270.4,171.3c-1.4,0-2.8-0.4-3.8-1.3c-0.2-0.2-0.3-0.5-0.2-0.8c1.1-2.8,2.7-4.5,4.6-5c2.4-0.6,5-0.2,7.2,0.9&#10;&#9;&#9;c0.2,0.1,0.3,0.2,0.4,0.4c0.1,0.2,0.1,0.4,0,0.6c-1.3,2.7-3.8,4.5-6.8,5.1C271.4,171.3,270.9,171.3,270.4,171.3z M267.9,169.3&#10;&#9;&#9;c1.1,0.6,2.4,0.8,3.7,0.6c2.2-0.4,4.2-1.8,5.4-3.8c-1.7-0.8-3.7-0.9-5.5-0.5C270,166,268.8,167.2,267.9,169.3L267.9,169.3z"/>
	<path class="st1_radio-presenter-54" d="M311.2,147.5c0.1-4.3-1.6-8.4-4.6-11.4v-2.7h-6.5c-6.1,0-11.1,6.3-11.1,14s5,14,11.1,14h6.5v-2.7&#10;&#9;&#9;C309.6,155.9,311.3,151.8,311.2,147.5z"/>
	<path class="st1_radio-presenter-54" d="M306.6,162.2h-6.5c-6.5,0-11.8-6.6-11.8-14.7s5.3-14.7,11.8-14.7h6.5c0.4,0,0.7,0.3,0.7,0.7c0,0,0,0,0,0v2.4&#10;&#9;&#9;c6.1,6.6,6.1,16.8,0,23.3v2.4C307.3,161.9,307,162.2,306.6,162.2C306.6,162.2,306.6,162.2,306.6,162.2z M300.1,134.2&#10;&#9;&#9;c-5.7,0-10.4,6-10.4,13.3s4.7,13.3,10.4,13.3h5.8v-2c0-0.2,0.1-0.4,0.2-0.5c5.8-6.1,5.8-15.7,0-21.7c-0.1-0.1-0.2-0.3-0.2-0.5v-2&#10;&#9;&#9;L300.1,134.2z"/>
	<ellipse class="st2_radio-presenter-54" cx="306.6" cy="147.5" rx="11.1" ry="14"/>
	<path class="st1_radio-presenter-54" d="M306.6,162.2c-6.5,0-11.8-6.6-11.8-14.7s5.3-14.7,11.8-14.7s11.8,6.6,11.8,14.7S313.1,162.2,306.6,162.2z&#10;&#9;&#9; M306.6,134.2c-5.7,0-10.4,6-10.4,13.3s4.7,13.3,10.4,13.3s10.4-6,10.4-13.3S312.3,134.2,306.6,134.2z"/>
	<path class="st3_radio-presenter-54" d="M306.6,157.2c-3.6,0-6.6-4.4-6.6-9.7s2.9-9.7,6.6-9.7s6.5,4.4,6.5,9.7S310.2,157.2,306.6,157.2z M306.6,139.2&#10;&#9;&#9;c-2.9,0-5.2,3.7-5.2,8.3s2.3,8.3,5.2,8.3s5.1-3.7,5.1-8.3S309.4,139.2,306.6,139.2L306.6,139.2z"/>
	<path class="st1_radio-presenter-54" d="M241.3,194.1c0.1,1.2-8.6,45-8.6,45"/>
	<path class="st1_radio-presenter-54" d="M232.6,239.8h-0.1c-0.3-0.1-0.6-0.4-0.5-0.8c3.5-17.3,8.6-43.5,8.6-44.9c0-0.4,0.2-0.7,0.6-0.8&#10;&#9;&#9;c0.4,0,0.7,0.3,0.8,0.6c0.1,1.2-6.6,35-8.7,45.2C233.3,239.6,233,239.8,232.6,239.8z"/>
	<path class="st2_radio-presenter-54" d="M205.1,229.6l-5.7,28.4l-19.7-23.1c0,0-3.4-5.6-5.5-6.4c-2.6-1-13.2-1.6-16.7-4.5s-5.5-3.5-5.8-1.3&#10;&#9;&#9;s9.3,8,9.3,8s-7.7,2.2-9.3,1.6s-5.6-9-7.2-9c-0.8,0-2.6,1.8-1,5.4c-1.4-3.5-3.4-7.4-5-7.5s-1.6,3-0.6,6.9c0,0-4.2-6.9-5.9-2.6&#10;&#9;&#9;c-1.5,3.9,9.6,17.7,12.2,18.3s19.6-4.5,19.6-4.5s20.7,59.1,50.7,66.8c7.5,1.9,18-67,18-67L205.1,229.6z"/>
	<path class="st1_radio-presenter-54" d="M215,306.8c-0.2,0-0.3,0-0.5-0.1c-12.6-3.2-25.1-15.6-37.1-36.6c-5.4-9.6-10.1-19.7-13.9-30&#10;&#9;&#9;c-3.4,1-16.9,5-19.4,4.3c-2.2-0.6-8.6-8.1-11.4-13.5c-1.4-2.6-1.8-4.5-1.3-5.8c0.6-1.4,1.4-1.8,2-1.8c1.1-0.1,2.3,0.8,3.2,1.8&#10;&#9;&#9;c-0.3-1.9-0.1-3.2,0.4-4c0.3-0.4,0.9-0.7,1.4-0.7l0,0c1.2,0,2.5,1.3,3.9,3.9c0.1-0.3,0.2-0.6,0.4-0.8c0.4-0.6,1-1,1.7-1.1&#10;&#9;&#9;c1.2,0,2.4,1.8,4.5,5.1c1,1.5,2.4,3.8,2.9,4c0.7,0.3,4.1-0.4,7.3-1.2c-3.4-2.1-8.6-5.8-8.3-7.9c0-0.8,0.5-1.5,1.2-1.8&#10;&#9;&#9;c1.2-0.4,2.9,0.4,5.7,2.7c2.2,1.8,7.8,2.8,11.9,3.4c1.6,0.2,3.1,0.5,4.7,1c2.3,0.9,5.5,6.1,5.9,6.7l18.6,21.9l5.4-26.9&#10;&#9;&#9;c0-0.2,0.2-0.4,0.3-0.5c0.2-0.1,0.4-0.1,0.6-0.1l27.5,9.5c0.3,0.1,0.5,0.4,0.5,0.8c-0.4,2.5-9.6,62.2-17.1,67.2&#10;&#9;&#9;C215.9,306.6,215.4,306.8,215,306.8z M163.9,238.6c0.3,0,0.6,0.2,0.7,0.5c0.2,0.6,20.9,58.8,50.3,66.3c0.2,0,0.5,0,0.6-0.2&#10;&#9;&#9;c5.8-3.8,13.7-48.1,16.4-65.7l-26.2-9l-5.6,27.6c-0.1,0.3-0.3,0.5-0.5,0.5c-0.3,0.1-0.5,0-0.7-0.2l-19.7-23.1&#10;&#9;&#9;c-1.3-2.2-3.9-5.7-5.2-6.2c-1.5-0.4-2.9-0.7-4.4-0.9c-4.4-0.7-10-1.6-12.5-3.7c-3.1-2.5-4.1-2.6-4.3-2.5s-0.3,0.5-0.3,0.7&#10;&#9;&#9;c-0.1,0.9,4.1,4.4,9,7.3c0.2,0.1,0.4,0.4,0.3,0.7c0,0.3-0.2,0.5-0.5,0.6c-1.3,0.4-8.1,2.3-9.8,1.6c-0.9-0.4-2-1.9-3.6-4.5&#10;&#9;&#9;c-1-1.6-2.7-4.2-3.4-4.4c-0.2,0.1-0.4,0.3-0.6,0.6c-0.5,1-0.5,2.2,0,3.3c0.1,0.2,0.2,0.4,0.3,0.6c0.1,0.4,0,0.8-0.4,0.9&#10;&#9;&#9;c-0.4,0.1-0.8,0-0.9-0.4c-0.1-0.2-0.2-0.4-0.3-0.7c-1.8-4.4-3.4-6.4-4.2-6.4c-0.1,0-0.2,0.1-0.3,0.1c-0.4,0.5-0.5,2.3,0.4,5.9&#10;&#9;&#9;c0.1,0.3-0.1,0.7-0.4,0.8c-0.3,0.1-0.7,0-0.9-0.3c-1-1.6-2.8-3.8-3.8-3.7c-0.4,0-0.6,0.5-0.8,0.9s-0.3,1.6,1.2,4.6&#10;&#9;&#9;c3,5.8,9.1,12.5,10.5,12.8c1.7,0.4,12.7-2.5,19.2-4.5L163.9,238.6z"/>
	<line class="st4_radio-presenter-54" x1="143.5" y1="228.7" x2="147.2" y2="233.9"/>
	<path class="st1_radio-presenter-54" d="M147.2,234.6c-0.2,0-0.4-0.1-0.6-0.3l-3.7-5.2c-0.2-0.3-0.1-0.8,0.2-1s0.8-0.1,1,0.2l0,0l3.7,5.3&#10;&#9;&#9;c0.2,0.3,0.2,0.7-0.1,1c0,0,0,0,0,0C147.6,234.6,147.4,234.7,147.2,234.6z"/>
	<path class="st2_radio-presenter-54" d="M137.9,228.1c1.3,2,2.7,4,4.2,5.8"/>
	<path class="st1_radio-presenter-54" d="M142.2,234.6c-0.2,0-0.4-0.1-0.5-0.2c-1.6-1.9-3-3.9-4.3-5.9c-0.2-0.3-0.1-0.8,0.2-1c0,0,0,0,0,0&#10;&#9;&#9;c0.3-0.2,0.8-0.1,1,0.2c0,0,0,0,0,0c1.3,2,2.7,3.9,4.1,5.7c0.3,0.3,0.3,0.7,0,1C142.6,234.5,142.4,234.6,142.2,234.6L142.2,234.6z"/>
	<path class="st2_radio-presenter-54" d="M289.2,256.2l0.8,0.1c2.3,0.3,4.3,1.5,5.8,3.3c1.7,2.6,1.8,5.9,0.2,8.5c-3.3,6-11.5,7.7-17.7,8.3&#10;&#9;&#9;c-0.9,0.1-1.8,0.1-2.6-0.2c-1-0.3-1.7-1.3-1.4-2.4c0.2-0.6,0.6-1.1,1.2-1.3c0.7-0.3,1.4-0.5,2.1-0.6c3.9-0.6,8-1.1,11.5-2.9&#10;&#9;&#9;c2.1-1,5-3.5,3.5-6c-0.5-0.8-1.3-1.5-2.2-1.9c-3.6-1.7-7-0.4-10.5,0.6c-0.3,0.1-0.5,0.1-0.8,0.1c-0.7-0.2-1.1-0.9-1-1.6&#10;&#9;&#9;c0.1-1.5,1.7-2.6,3.1-3.1C283.6,256.1,286.4,255.8,289.2,256.2z"/>
	<path class="st1_radio-presenter-54" d="M277.2,277.1c-0.6,0-1.3-0.1-1.8-0.3c-1.4-0.4-2.2-1.8-1.9-3.3c0.2-0.8,0.8-1.4,1.5-1.7&#10;&#9;&#9;c0.7-0.3,1.5-0.6,2.3-0.7l1.4-0.2c3.4-0.5,6.9-1.1,9.9-2.6c1.3-0.7,3-1.9,3.4-3.3c0.2-0.6,0.1-1.2-0.2-1.7&#10;&#9;&#9;c-0.5-0.7-1.1-1.3-1.9-1.6c-3-1.4-6-0.5-9.1,0.4l-0.9,0.3c-0.4,0.1-0.7,0.2-1.1,0.1c-1.1-0.2-1.8-1.3-1.6-2.3&#10;&#9;&#9;c0.1-1.6,1.4-2.9,3.5-3.7c2.7-1,5.7-1.4,8.5-0.9l0,0l0.8,0.1c2.4,0.4,4.7,1.6,6.2,3.5c1.8,2.8,1.9,6.4,0.2,9.2&#10;&#9;&#9;c-2.7,4.9-8.7,7.7-18.3,8.6C277.9,277,277.5,277.1,277.2,277.1z M286.5,259.5c1.4,0,2.8,0.3,4,0.9c1,0.4,1.9,1.2,2.5,2.1&#10;&#9;&#9;c0.5,0.9,0.7,1.9,0.4,2.9c-0.7,2.3-3.3,3.8-4.1,4.2c-3.2,1.6-6.8,2.2-10.3,2.8l-1.4,0.2c-0.6,0.1-1.3,0.2-1.9,0.5&#10;&#9;&#9;c-0.7,0.2-1,1-0.8,1.6c0.2,0.4,0.5,0.7,0.9,0.8c0.7,0.2,1.5,0.3,2.3,0.1c9.1-0.9,14.7-3.4,17.2-7.9c1.4-2.4,1.4-5.4-0.1-7.7&#10;&#9;&#9;c-1.4-1.6-3.3-2.7-5.4-3l-0.7-0.1c-2.6-0.4-5.3-0.1-7.8,0.9c-0.8,0.3-2.5,1.1-2.6,2.5c0,0.4,0.2,0.8,0.4,0.8c0.2,0,0.3,0,0.5-0.1&#10;&#9;&#9;l0.9-0.3C282.4,260,284.4,259.6,286.5,259.5z"/>
	<path class="st2_radio-presenter-54" d="M286.3,249.7c0,0-5.9,29.3-6.4,31.1s-14.4,9-25.4,1.9l-9.7-30L286.3,249.7z"/>
	<path class="st1_radio-presenter-54" d="M265.3,286.5c-4,0-7.9-1.1-11.2-3.2c-0.1-0.1-0.2-0.2-0.3-0.4l-9.7-30c-0.1-0.2,0-0.4,0.1-0.6&#10;&#9;&#9;c0.1-0.2,0.3-0.3,0.5-0.3l41.5-3c0.4,0,0.7,0.3,0.8,0.6c0,0.1,0,0.1,0,0.2c-0.2,1.2-5.9,29.4-6.4,31.1c-0.3,1.2-3,2.7-5.6,3.6&#10;&#9;&#9;C271.9,285.9,268.6,286.5,265.3,286.5z M255,282.3c6.5,4,13.6,2.9,17.3,1.8c4.2-1.2,6.7-3,6.9-3.5c0.4-1.5,5.2-25.2,6.2-30.1&#10;&#9;&#9;l-39.7,2.9L255,282.3z"/>
	<path class="st1_radio-presenter-54" d="M286.3,249.7c-0.1,1.7-0.9,3.3-2.3,4.3c-3.4,3-10.2,5.2-18.1,5.5c-8.2,0.3-15.4-1.4-18.9-4.3&#10;&#9;&#9;c-1.3-0.9-2.1-2.3-2.3-3.9c-0.2-5,8.9-9.4,20.4-9.9S286.1,244.8,286.3,249.7z"/>
	<path class="st1_radio-presenter-54" d="M263.8,260.3c-7.4,0-13.9-1.7-17.3-4.5c-1.4-1-2.4-2.6-2.5-4.4c0-1.6,0.6-3.1,1.7-4.1&#10;&#9;&#9;c3.3-3.6,10.9-6.1,19.4-6.4s16.3,1.5,19.8,4.8c1.2,1,2,2.4,2.1,4c0,1.9-1,3.7-2.5,4.9c-3.6,3.2-10.7,5.4-18.6,5.7&#10;&#9;&#9;C265.2,260.3,264.5,260.3,263.8,260.3z M267.1,242.2c-0.7,0-1.3,0-2,0c-8.1,0.3-15.3,2.7-18.4,6c-0.9,0.8-1.4,1.9-1.4,3.1&#10;&#9;&#9;c0.1,1.4,0.9,2.6,2,3.3c3.5,2.8,10.7,4.4,18.4,4.1c7.5-0.3,14.3-2.4,17.7-5.4c1.2-0.9,1.9-2.3,2-3.8l0,0c-0.1-1.2-0.7-2.3-1.6-3&#10;&#9;&#9;C280.9,243.9,274.4,242.2,267.1,242.2L267.1,242.2z"/>
	<path class="st0_radio-presenter-54 targetColor" d="M284,254c-3.4,3-10.2,5.2-18.1,5.5c-8.2,0.3-15.4-1.4-18.9-4.3c3.4-3,10.2-5.2,18.2-5.5&#10;&#9;&#9;C273.3,249.4,280.5,251.2,284,254z" style="fill: rgb(81, 224, 147);"/>
	<path class="st1_radio-presenter-54" d="M263.8,260.3c-7.4,0-13.9-1.7-17.3-4.5c-0.3-0.2-0.3-0.7-0.1-1c0,0,0.1-0.1,0.1-0.1c3.6-3.2,10.7-5.4,18.6-5.7&#10;&#9;&#9;c8.2-0.3,15.6,1.4,19.4,4.4c0.3,0.2,0.3,0.7,0.1,1c0,0-0.1,0.1-0.1,0.1c-3.6,3.2-10.7,5.4-18.6,5.7&#10;&#9;&#9;C265.2,260.3,264.5,260.3,263.8,260.3z M248.1,255.3c3.7,2.5,10.5,3.9,17.7,3.6c7.1-0.3,13.5-2.1,17-4.8&#10;&#9;&#9;c-3.7-2.5-10.5-3.9-17.7-3.6C258,250.8,251.6,252.6,248.1,255.3z"/>
	<path class="st2_radio-presenter-54" d="M361,221.2c0,0,29.6,47.2,26.3,61s-77.2-5.9-77.2-5.9c-2.4,0.7-4.8,1.3-7.2,1.8c-2.3,0.5-9.4,3-11.3,1.1&#10;&#9;&#9;c-3.1-3.4-3.6-8.4-1.2-12.3c-1.1-0.6-2.1-1.4-2.9-2.4c-0.8-1-1.1-2.3-0.7-3.5c0.6-1.1,1.6-1.9,2.8-2.3c6.6-2.7,14.7-2.5,21.7-2.6&#10;&#9;&#9;l38.7,8.6l-19.6-32.3"/>
	<path class="st1_radio-presenter-54" d="M373,287.9c-21.6,0-59.3-9.8-62.8-10.8c-2.3,0.6-4.7,1.2-7.1,1.8c-0.4,0.1-0.9,0.2-1.6,0.4&#10;&#9;&#9;c-4.3,1.2-8.7,2.2-10.4,0.5c-3.2-3.4-3.8-8.5-1.6-12.6c-0.9-0.6-1.8-1.3-2.5-2.1c-1-1.2-1.3-2.8-0.8-4.2c0.7-1.3,1.8-2.3,3.2-2.7&#10;&#9;&#9;c6.1-2.5,13.5-2.6,20.1-2.6h1.9h0.2l37.1,8.2l-18.7-30.9c-0.2-0.3-0.2-0.7,0.1-1s0.7-0.2,1,0.1c0,0,0.1,0.1,0.1,0.1l19.6,32.3&#10;&#9;&#9;c0.2,0.2,0.2,0.5,0,0.8c-0.2,0.2-0.4,0.3-0.7,0.3l-38.6-8.6h-1.8c-6.4,0.1-13.7,0.1-19.5,2.5c-1,0.3-1.9,1-2.4,1.9&#10;&#9;&#9;c-0.3,1-0.1,2.1,0.6,2.8c0.8,0.9,1.7,1.6,2.7,2.2c0.2,0.1,0.3,0.3,0.3,0.5c0,0.2,0,0.4-0.1,0.5c-2.3,3.6-1.8,8.3,1.1,11.5&#10;&#9;&#9;c1.3,1.3,6.5-0.1,9-0.8l1.6-0.4c2.4-0.5,4.9-1.2,7.2-1.8c0.1,0,0.2,0,0.4,0c0.6,0.2,61.8,16.3,74.4,8.8c1-0.5,1.7-1.4,2-2.4&#10;&#9;&#9;c3.2-13.4-26-60-26.2-60.5c-0.2-0.3-0.1-0.8,0.2-1c0.3-0.2,0.8-0.1,1,0.2c0,0,0,0,0,0.1c1.2,1.9,29.8,47.6,26.4,61.6&#10;&#9;&#9;c-0.4,1.4-1.3,2.6-2.6,3.3C382.9,287.2,378.4,287.9,373,287.9z"/>
	<line class="st4_radio-presenter-54" x1="331" y1="249.7" x2="328.2" y2="197.3"/>
	<path class="st1_radio-presenter-54" d="M331,250.4c-0.4,0-0.7-0.3-0.7-0.7l-2.8-52.4c0-0.4,0.3-0.7,0.6-0.7c0,0,0,0,0,0c0.4,0,0.7,0.2,0.7,0.6&#10;&#9;&#9;c0,0,0,0,0,0.1l2.8,52.4C331.7,250.1,331.4,250.4,331,250.4C331,250.4,331,250.4,331,250.4L331,250.4z"/>
</g>
<g id="Chair_radio-presenter-54">
	<polygon class="st2_radio-presenter-54" points="118.2,300.1 381.8,300.1 424.1,373.8 75.9,373.8 &#9;"/>
	<path class="st1_radio-presenter-54" d="M424.1,374.5H75.9c-0.4,0-0.7-0.3-0.7-0.7c0-0.1,0-0.2,0.1-0.3l42.3-73.7c0.1-0.2,0.4-0.4,0.6-0.4h263.5&#10;&#9;&#9;c0.3,0,0.5,0.1,0.6,0.4l42.3,73.7c0.2,0.3,0.1,0.8-0.3,1C424.3,374.5,424.2,374.5,424.1,374.5z M77.2,373.1h345.7l-41.5-72.3H118.6&#10;&#9;&#9;L77.2,373.1z"/>
	<rect x="76.3" y="373.8" class="st2_radio-presenter-54" width="347.7" height="14.3"/>
	<path class="st1_radio-presenter-54" d="M424.1,388.8H76.3c-0.4,0-0.7-0.3-0.7-0.7l0,0v-14.3c0-0.4,0.3-0.7,0.7-0.7h0h347.7c0.4,0,0.7,0.3,0.7,0.7&#10;&#9;&#9;v14.3C424.8,388.5,424.4,388.8,424.1,388.8z M77,387.4h346.4v-12.9H77V387.4z"/>
	<rect x="83.8" y="388.1" class="st1_radio-presenter-54" width="332.8" height="14.3"/>
	<path class="st1_radio-presenter-54" d="M416.6,403.1H83.8c-0.4,0-0.7-0.3-0.7-0.7l0,0v-14.3c0-0.4,0.3-0.7,0.7-0.7h0h332.8c0.4,0,0.7,0.3,0.7,0.7v0&#10;&#9;&#9;v14.3C417.3,402.8,417,403.1,416.6,403.1z M84.5,401.7h331.4v-12.9H84.5L84.5,401.7z"/>
</g>
<g id="Cup_radio-presenter-54">
	<ellipse class="st2_radio-presenter-54" cx="272.8" cy="313.1" rx="27.6" ry="8.3"/>
	<path class="st3_radio-presenter-54" d="M272.8,322.1c-13.9,0-28.3-3.4-28.3-9s14.4-9,28.3-9s28.3,3.4,28.3,9S286.7,322.1,272.8,322.1z M272.8,305.5&#10;&#9;&#9;c-15.8,0-26.9,4-26.9,7.6s11,7.6,26.9,7.6s26.9-4,26.9-7.6S288.7,305.5,272.8,305.5z"/>
	<ellipse class="st2_radio-presenter-54" cx="272.8" cy="313.1" rx="15" ry="4.5"/>
	<path class="st3_radio-presenter-54" d="M272.8,318.3c-7.6,0-15.7-1.8-15.7-5.2s8.1-5.2,15.7-5.2s15.7,1.8,15.7,5.2S280.5,318.3,272.8,318.3z&#10;&#9;&#9; M272.8,309.2c-8.9,0-14.3,2.2-14.3,3.8s5.5,3.8,14.3,3.8s14.3-2.2,14.3-3.8S281.7,309.2,272.8,309.2z"/>
</g>
<g id="Laptop_radio-presenter-54">
	<polygon class="st2_radio-presenter-54" points="160.4,334.2 160.7,337.8 241.4,349.6 240.6,345.8 &#9;"/>
	<path class="st1_radio-presenter-54" d="M241.4,350.3h-0.1l-80.7-11.8c-0.3,0-0.6-0.3-0.6-0.6l-0.3-3.6c0-0.2,0.1-0.4,0.2-0.6c0.2-0.1,0.4-0.2,0.6-0.2&#10;&#9;&#9;l80.2,11.6c0.3,0,0.5,0.3,0.6,0.5l0.8,3.8c0,0.2,0,0.5-0.2,0.6C241.7,350.2,241.6,350.3,241.4,350.3z M161.4,337.2l79.1,11.6&#10;&#9;&#9;l-0.5-2.3L161.1,335L161.4,337.2z"/>
	<path class="st2_radio-presenter-54" d="M160.4,334.2c0,0,18.4-15.8,19-15.6s83.1,10,83.1,10l-21.9,17.2L160.4,334.2z"/>
	<path class="st1_radio-presenter-54" d="M240.6,346.5h-0.1l-80.2-11.6c-0.3,0-0.5-0.2-0.6-0.5c-0.1-0.3,0-0.6,0.2-0.7c18.6-16,19.2-15.9,19.6-15.8&#10;&#9;&#9;c1,0.2,54.8,6.6,83.1,10c0.3,0,0.5,0.2,0.6,0.5c0.1,0.3,0,0.6-0.2,0.7L241,346.4C240.9,346.5,240.7,346.5,240.6,346.5z M162,333.7&#10;&#9;&#9;l78.4,11.4l20.4-16c-16.4-2-76.8-9.2-81.3-9.8C178,320.2,168.5,328.2,162,333.7z"/>
	<polygon class="st2_radio-presenter-54" points="241.4,349.6 262.8,332.2 262.5,328.6 240.6,345.8 &#9;"/>
	<path class="st1_radio-presenter-54" d="M241.4,350.3c-0.1,0-0.2,0-0.2,0c-0.2-0.1-0.4-0.3-0.4-0.5l-0.8-3.8c0-0.3,0.1-0.5,0.3-0.7l21.9-17.2&#10;&#9;&#9;c0.2-0.2,0.5-0.2,0.7-0.1c0.2,0.1,0.4,0.3,0.4,0.6l0.3,3.6c0,0.2-0.1,0.5-0.2,0.6l-21.4,17.4C241.7,350.2,241.5,350.3,241.4,350.3z&#10;&#9;&#9; M241.4,346.1l0.5,2.2l20.2-16.4l-0.2-1.9L241.4,346.1z"/>
	<polygon class="st2_radio-presenter-54" points="160.4,334.2 144.9,282.3 229.9,296.8 240.6,345.8 &#9;"/>
	<path class="st1_radio-presenter-54" d="M240.6,346.5h-0.1l-80.2-11.6c-0.3,0-0.5-0.2-0.6-0.5l-15.5-52c-0.1-0.2,0-0.5,0.1-0.7&#10;&#9;&#9;c0.2-0.2,0.4-0.3,0.6-0.2l85,14.5c0.3,0.1,0.5,0.3,0.6,0.5l10.6,49.1c0.1,0.2,0,0.5-0.2,0.6C240.9,346.4,240.7,346.5,240.6,346.5z&#10;&#9;&#9; M160.9,333.6l78.8,11.4l-10.3-47.6l-83.5-14.2L160.9,333.6z"/>
</g>
<g id="mic_radio-presenter-54">
	<polygon class="st1_radio-presenter-54" points="91,363.2 91,367.5 132.5,367.5 142.9,342.7 140.7,338.1 &#9;"/>
	<path class="st1_radio-presenter-54" d="M132.5,368.2H91c-0.4,0-0.7-0.3-0.7-0.7l0,0v-4.3c0-0.3,0.2-0.5,0.4-0.6l49.7-25.1c0.2-0.1,0.4-0.1,0.6,0&#10;&#9;&#9;c0.2,0.1,0.3,0.2,0.4,0.4l2.2,4.6c0.1,0.2,0.1,0.4,0,0.6l-10.4,24.8C133,368.1,132.8,368.2,132.5,368.2z M91.7,366.9H132l10.1-24.1&#10;&#9;&#9;l-1.7-3.6l-48.6,24.6V366.9z"/>
	<path class="st2_radio-presenter-54" d="M105.8,337.3c-0.6,1.2-14.8,26-14.8,26h39.8l9.9-25.1L105.8,337.3z"/>
	<path class="st1_radio-presenter-54" d="M130.8,364H91c-0.4,0-0.7-0.3-0.7-0.7c0-0.1,0-0.2,0.1-0.3c4-6.9,14.3-24.9,14.8-25.9c0.1-0.2,0.4-0.4,0.7-0.4&#10;&#9;&#9;l34.9,0.9c0.2,0,0.4,0.1,0.6,0.3c0.1,0.2,0.2,0.4,0.1,0.6l-9.9,25.1C131.3,363.8,131.1,364,130.8,364z M92.2,362.6h38.1l9.3-23.7&#10;&#9;&#9;l-33.4-0.9C104.6,341,94.8,358.1,92.2,362.6L92.2,362.6z"/>
	<path class="st1_radio-presenter-54" d="M113.7,353.5c-1.3,0-2.5-1-2.8-2.3L84,206c-0.2-1.2,0.4-2.4,1.5-3l81.6-40.5c1.4-0.6,3.1,0.1,3.7,1.5&#10;&#9;&#9;c0.5,1.3,0,2.8-1.2,3.5L89.9,207l26.6,143.2c0.3,1.5-0.7,3-2.2,3.3C114.1,353.5,113.9,353.5,113.7,353.5z"/>
	<path class="st1_radio-presenter-54" d="M119.7,351.7c-0.7,0-1.2-0.5-1.4-1.1l-26-141c-0.1-0.6,0.2-1.3,0.8-1.5l80.3-37.7c0.7-0.4,1.5-0.1,1.9,0.6&#10;&#9;&#9;c0.4,0.7,0.1,1.5-0.6,1.9c0,0-0.1,0-0.1,0.1l-79.3,37.2L121.1,350c0.1,0.8-0.4,1.5-1.1,1.6C119.8,351.7,119.8,351.7,119.7,351.7z"/>
	<circle class="st1_radio-presenter-54" cx="92.7" cy="207.4" r="8.9"/>
	<path class="st1_radio-presenter-54" d="M92.7,217c-5.3,0-9.6-4.3-9.6-9.6c0-5.3,4.3-9.6,9.6-9.6s9.6,4.3,9.6,9.6C102.3,212.7,98,217,92.7,217&#10;&#9;&#9;L92.7,217z M92.7,199.3c-4.5,0-8.2,3.7-8.2,8.2c0,4.5,3.7,8.2,8.2,8.2s8.2-3.7,8.2-8.2c0,0,0,0,0,0&#10;&#9;&#9;C100.9,202.9,97.3,199.2,92.7,199.3C92.7,199.2,92.7,199.2,92.7,199.3L92.7,199.3z"/>
	<circle class="st1_radio-presenter-54" cx="172.6" cy="167.6" r="8.9"/>
	<path class="st1_radio-presenter-54" d="M172.6,177.2c-5.3,0-9.6-4.3-9.6-9.6c0-5.3,4.3-9.6,9.6-9.6s9.6,4.3,9.6,9.6c0,0,0,0,0,0&#10;&#9;&#9;C182.2,172.9,177.9,177.2,172.6,177.2z M172.6,159.4c-4.5,0-8.2,3.7-8.2,8.2s3.7,8.2,8.2,8.2s8.2-3.7,8.2-8.2l0,0&#10;&#9;&#9;C180.8,163.1,177.1,159.4,172.6,159.4z"/>
	<path class="st1_radio-presenter-54" d="M186.2,195.8c-0.6,0-1.1-0.4-1.3-0.9l-9.5-25.2c-0.3-0.7,0.1-1.5,0.8-1.8c0,0,0,0,0,0c0.7-0.3,1.5,0.1,1.8,0.8&#10;&#9;&#9;l9.5,25.2c0.3,0.7-0.1,1.5-0.8,1.8C186.6,195.8,186.4,195.8,186.2,195.8z"/>
	<path class="st1_radio-presenter-54" d="M233.6,171.6l2.7,9.4c0.8,2.7-0.8,5.4-3.4,6.2l-27.1,7.8l0,0l-5.5-19.1l0,0l27-7.8c2.6-0.8,5.4,0.7,6.2,3.4&#10;&#9;&#9;C233.6,171.5,233.6,171.6,233.6,171.6z"/>
	<path class="st1_radio-presenter-54" d="M205.8,195.8c-0.3,0-0.6-0.2-0.7-0.5l-5.5-19.1c-0.1-0.2,0-0.4,0.1-0.5c0.1-0.2,0.2-0.3,0.4-0.3l25.1-7.3&#10;&#9;&#9;c4.1-1.2,8.4,1.2,9.6,5.3l1.6,5.6c1.2,4.1-1.2,8.4-5.3,9.6l-25.2,7.3C205.9,195.8,205.9,195.8,205.8,195.8z M201.2,176.5l5.1,17.8&#10;&#9;&#9;l24.5-7.1c3.4-1,5.3-4.5,4.3-7.9l-1.6-5.6c-1-3.4-4.5-5.3-7.9-4.3c0,0,0,0,0,0L201.2,176.5z"/>
	<path class="st2_radio-presenter-54" d="M202,172.3l7.2,24.9l0,0l-11.7,3.4c-4.9,1.4-10-1.4-11.5-6.3l-2.1-7.1c-1.4-4.9,1.4-10,6.3-11.5L202,172.3&#10;&#9;&#9;L202,172.3z"/>
	<path class="st1_radio-presenter-54" d="M197.4,200.8c-7.5,0.1-13.7-6-13.8-13.6c0-6.2,4-11.6,10-13.3l8.2-2.4c0.4-0.1,0.7,0.1,0.9,0.4c0,0,0,0,0,0&#10;&#9;&#9;l7.2,24.9c0.1,0.4-0.1,0.8-0.5,0.9l-8.2,2.4C200,200.6,198.7,200.8,197.4,200.8z M201.5,173.2l-7.5,2.2c-6.5,1.9-10.2,8.7-8.4,15.2&#10;&#9;&#9;l0,0c1.9,6.5,8.7,10.2,15.2,8.4l7.5-2.2L201.5,173.2z"/>
	<path class="st2_radio-presenter-54" d="M208.6,171.3l6.7,23.2c0.1,0.5-0.1,0.9-0.6,1.1l-2.1,0.6c-0.5,0.1-0.9-0.1-1.1-0.6l-6.7-23.2&#10;&#9;&#9;c-0.1-0.5,0.1-0.9,0.6-1.1l2.1-0.6C208,170.6,208.5,170.8,208.6,171.3z"/>
	<path class="st1_radio-presenter-54" d="M212.7,196.9c-0.8,0-1.6-0.6-1.8-1.4l-6.5-22.6c-0.1-0.5-0.1-1,0.2-1.4c0.2-0.4,0.7-0.8,1.1-0.9l1.4-0.4&#10;&#9;&#9;c1-0.3,2.1,0.3,2.4,1.3c0,0,0,0,0,0l6.5,22.6c0.3,1-0.3,2.1-1.3,2.4c0,0,0,0,0,0l-1.4,0.4C213,196.8,212.9,196.9,212.7,196.9z&#10;&#9;&#9; M207.6,171.5c0,0-0.1,0-0.1,0l-1.4,0.4c-0.1,0-0.2,0.1-0.3,0.2c0,0.1,0,0.3,0,0.4l6.5,22.6l0,0c0.1,0.3,0.3,0.4,0.6,0.3&#10;&#9;&#9;c0,0,0,0,0,0l1.4-0.4c0.3-0.1,0.4-0.4,0.4-0.6l-6.5-22.6c0-0.1-0.1-0.2-0.2-0.3C207.8,171.5,207.7,171.5,207.6,171.5z"/>
	<path class="st2_radio-presenter-54" d="M107.2,341.4c2.3,1,4.7,1.5,7.2,1.6c2.5,0,5-0.7,7.2-2l1.6,10.4c0,0-2.5,4.9-7.6,4.9c-6.4,0-8.3-3.6-8.3-3.6&#10;&#9;&#9;V341.4z"/>
	<path class="st1_radio-presenter-54" d="M115.4,357.1c-6.6,0-8.7-3.8-8.8-4c-0.1-0.1-0.1-0.2-0.1-0.3v-11.4c0-0.4,0.3-0.7,0.7-0.7c0.1,0,0.2,0,0.3,0.1&#10;&#9;&#9;c2.2,0.9,4.5,1.5,6.9,1.6c2.4,0,4.8-0.7,6.9-1.9c0.2-0.1,0.5-0.1,0.7,0c0.2,0.1,0.4,0.3,0.4,0.5l1.6,10.5c0,0.1,0,0.3-0.1,0.4&#10;&#9;&#9;c-0.1,0.2-2.8,5.2-8.3,5.3L115.4,357.1z M107.9,352.6c0.4,0.6,2.4,3.1,7.5,3.1h0.1c4.1,0,6.4-3.5,6.9-4.3l-1.4-9.2&#10;&#9;&#9;c-2.1,1-4.4,1.6-6.7,1.6c-2.2-0.1-4.4-0.5-6.4-1.3L107.9,352.6z"/>
	<ellipse class="st1_radio-presenter-54" cx="114.4" cy="341.4" rx="7.2" ry="2.3"/>
	<path class="st1_radio-presenter-54" d="M114.4,344.4c-3.8,0-7.9-0.9-7.9-3s4.1-3,7.9-3s7.9,0.9,7.9,3S118.2,344.4,114.4,344.4z M114.4,339.8&#10;&#9;&#9;c-4.2,0-6.5,1.1-6.5,1.6s2.3,1.6,6.5,1.6s6.5-1.1,6.5-1.6S118.6,339.8,114.4,339.8z"/>
</g>
<g id="Control_radio-presenter-54">
	<polygon class="st1_radio-presenter-54" points="320.3,309.3 331.5,363.9 402,363.9 378.7,309.3 &#9;"/>
	<path class="st1_radio-presenter-54" d="M402,364.6h-70.5c-0.3,0-0.6-0.2-0.7-0.6l-11.2-54.6c-0.1-0.4,0.2-0.7,0.5-0.8c0,0,0.1,0,0.1,0h58.4&#10;&#9;&#9;c0.3,0,0.5,0.2,0.6,0.4l23.3,54.6c0.1,0.2,0.1,0.5-0.1,0.7C402.4,364.5,402.2,364.6,402,364.6z M332,363.2h68.9L378.2,310h-57&#10;&#9;&#9;L332,363.2z"/>
	<polygon class="st2_radio-presenter-54" points="331.5,363.9 333.3,342.9 400.9,342.9 403.1,363.9 &#9;"/>
	<path class="st1_radio-presenter-54" d="M403.1,364.6h-71.7c-0.2,0-0.4-0.1-0.5-0.2c-0.1-0.1-0.2-0.3-0.2-0.5l1.8-21c0-0.4,0.3-0.6,0.7-0.6h67.6&#10;&#9;&#9;c0.4,0,0.7,0.3,0.7,0.6l2.3,21C403.9,364.3,403.6,364.6,403.1,364.6C403.2,364.7,403.1,364.7,403.1,364.6L403.1,364.6z&#10;&#9;&#9; M332.2,363.2h70.1l-2.1-19.6h-66.3L332.2,363.2z"/>
	<polygon class="st2_radio-presenter-54" points="333.3,342.9 320.3,309.3 378.7,309.3 400.9,342.9 &#9;"/>
	<path class="st1_radio-presenter-54" d="M400.9,343.6h-67.6c-0.3,0-0.5-0.2-0.6-0.5l-13-33.5c-0.1-0.2-0.1-0.5,0.1-0.6c0.1-0.2,0.3-0.3,0.6-0.3h58.4&#10;&#9;&#9;c0.2,0,0.5,0.1,0.6,0.3l22.2,33.5c0.2,0.3,0.1,0.8-0.2,1C401.1,343.6,401,343.6,400.9,343.6L400.9,343.6z M333.8,342.2h65.8&#10;&#9;&#9;L378.3,310h-57L333.8,342.2z"/>
	<line class="st4_radio-presenter-54" x1="371.7" y1="313.1" x2="384.9" y2="336.6"/>
	<path class="st3_radio-presenter-54" d="M384.9,337.3c-0.3,0-0.5-0.1-0.6-0.4l-13.2-23.6c-0.2-0.3-0.1-0.8,0.3-1c0.3-0.2,0.8-0.1,1,0.3l13.1,23.6&#10;&#9;&#9;c0.2,0.3,0,0.8-0.3,0.9C385,337.3,384.9,337.3,384.9,337.3L384.9,337.3z"/>
	<line class="st4_radio-presenter-54" x1="359.5" y1="313.1" x2="372.6" y2="336.6"/>
	<path class="st3_radio-presenter-54" d="M372.6,337.3c-0.2,0-0.5-0.1-0.6-0.3l-13.1-23.6c-0.2-0.3-0.1-0.8,0.2-1c0.3-0.2,0.8-0.1,1,0.2&#10;&#9;&#9;c0,0,0,0.1,0,0.1l13.1,23.6c0.2,0.3,0.1,0.8-0.3,1C372.8,337.3,372.7,337.3,372.6,337.3z"/>
	<line class="st4_radio-presenter-54" x1="347.2" y1="313.1" x2="360.4" y2="336.6"/>
	<path class="st3_radio-presenter-54" d="M360.4,337.3c-0.3,0-0.5-0.1-0.6-0.4l-13.1-23.6c-0.2-0.3-0.1-0.8,0.2-1c0.3-0.2,0.8-0.1,1,0.2&#10;&#9;&#9;c0,0,0,0.1,0,0.1l13.2,23.6c0.2,0.3,0.1,0.8-0.3,1C360.6,337.3,360.5,337.3,360.4,337.3z"/>
	<line class="st4_radio-presenter-54" x1="335" y1="313.1" x2="346.3" y2="337"/>
	<path class="st3_radio-presenter-54" d="M346.3,337.7c-0.3,0-0.5-0.2-0.6-0.4l-11.3-23.9c-0.2-0.3,0-0.8,0.3-0.9c0,0,0,0,0,0c0.4-0.2,0.8,0,0.9,0.3&#10;&#9;&#9;l11.3,23.9c0.2,0.4,0,0.8-0.3,0.9c0,0,0,0,0,0C346.5,337.6,346.4,337.7,346.3,337.7z"/>
	<ellipse class="st2_radio-presenter-54" cx="380.8" cy="328.6" rx="4.1" ry="2.2"/>
	<path class="st3_radio-presenter-54" d="M380.8,331.5c-2.7,0-4.8-1.3-4.8-2.9s2-2.9,4.8-2.9s4.8,1.2,4.8,2.9S383.5,331.5,380.8,331.5z M380.8,327.1&#10;&#9;&#9;c-1.9,0-3.4,0.8-3.4,1.5s1.3,1.5,3.4,1.5s3.4-0.9,3.4-1.5S382.7,327.1,380.8,327.1z"/>
	<ellipse class="st2_radio-presenter-54" cx="356.3" cy="330.3" rx="4.1" ry="2.2"/>
	<path class="st3_radio-presenter-54" d="M356.3,333.2c-2.7,0-4.8-1.2-4.8-2.9s2.1-2.9,4.8-2.9s4.8,1.3,4.8,2.9S359,333.2,356.3,333.2z M356.3,328.8&#10;&#9;&#9;c-2.1,0-3.4,0.9-3.4,1.5s1.4,1.5,3.4,1.5s3.4-0.8,3.4-1.5S358.4,328.8,356.3,328.8z"/>
	<ellipse class="st2_radio-presenter-54" cx="339.7" cy="322" rx="4.1" ry="2.2"/>
	<path class="st3_radio-presenter-54" d="M339.7,324.9c-2.7,0-4.8-1.3-4.8-2.9s2-2.9,4.8-2.9s4.8,1.2,4.8,2.9S342.4,324.9,339.7,324.9z M339.7,320.5&#10;&#9;&#9;c-1.9,0-3.4,0.8-3.4,1.5s1.3,1.5,3.4,1.5s3.4-0.9,3.4-1.5S341.6,320.5,339.7,320.5z"/>
	<ellipse class="st2_radio-presenter-54" cx="363.5" cy="322" rx="4.1" ry="2.2"/>
	<path class="st3_radio-presenter-54" d="M363.5,324.9c-2.7,0-4.8-1.3-4.8-2.9s2-2.9,4.8-2.9s4.8,1.2,4.8,2.9S366.2,324.9,363.5,324.9z M363.5,320.5&#10;&#9;&#9;c-1.9,0-3.4,0.8-3.4,1.5s1.3,1.5,3.4,1.5s3.4-0.9,3.4-1.5S365.4,320.5,363.5,320.5z"/>
	<circle class="st2_radio-presenter-54" cx="392.5" cy="354.1" r="2.5"/>
	<path class="st3_radio-presenter-54" d="M392.5,357.4c-1.8,0-3.2-1.5-3.2-3.2s1.5-3.2,3.2-3.2s3.2,1.5,3.2,3.2l0,0&#10;&#9;&#9;C395.8,355.9,394.3,357.4,392.5,357.4z M392.5,352.3c-1,0-1.9,0.8-1.9,1.9c0,1,0.8,1.9,1.9,1.9c1,0,1.9-0.8,1.9-1.9&#10;&#9;&#9;S393.6,352.3,392.5,352.3L392.5,352.3z"/>
	<path class="st3_radio-presenter-54" d="M384.9,354.1h-8.1c-0.4,0-0.7-0.3-0.7-0.7c0-0.4,0.3-0.7,0.7-0.7h8.1c0.4,0,0.7,0.3,0.7,0.7&#10;&#9;&#9;S385.2,354.1,384.9,354.1C384.9,354.1,384.9,354.1,384.9,354.1z"/>
</g>
<g id="On_Air_radio-presenter-54">
	<path class="st2_radio-presenter-54" d="M101.2,109.2h92.2c2.1,0,3.7,1.7,3.7,3.7v26.6c0,2.1-1.7,3.7-3.7,3.7h-92.2c-2.1,0-3.7-1.7-3.7-3.7v-26.6&#10;&#9;&#9;C97.4,110.8,99.1,109.2,101.2,109.2z"/>
	<path class="st3_radio-presenter-54" d="M191.9,144h-89.2c-3.3,0-5.9-2.6-5.9-5.9v-23.7c0-3.3,2.6-5.9,5.9-5.9h89.2c3.3,0,5.9,2.6,5.9,5.9v23.7&#10;&#9;&#9;C197.8,141.3,195.2,144,191.9,144C191.9,144,191.9,144,191.9,144z M102.6,109.9c-2.5,0-4.5,2-4.5,4.5v23.7c0,2.5,2,4.5,4.5,4.5&#10;&#9;&#9;h89.2c2.5,0,4.5-2,4.5-4.5c0,0,0,0,0,0v-23.7c0-2.5-2-4.5-4.5-4.5L102.6,109.9z"/>
	<path class="st0_radio-presenter-54 targetColor" d="M126.8,126.1c0,1.2-0.2,2.3-0.6,3.4c-0.4,1-0.9,1.9-1.7,2.6c-0.7,0.7-1.6,1.3-2.5,1.7c-1,0.4-2.1,0.6-3.2,0.6&#10;&#9;&#9;c-1.1,0-2.2-0.2-3.2-0.6c-0.9-0.4-1.8-0.9-2.5-1.7c-0.7-0.8-1.3-1.6-1.7-2.6c-0.4-1.1-0.6-2.2-0.6-3.4c0-1.2,0.2-2.3,0.6-3.4&#10;&#9;&#9;c0.4-1,0.9-1.8,1.7-2.6c0.7-0.7,1.6-1.3,2.5-1.6c1-0.4,2.1-0.6,3.2-0.6c1.1,0,2.2,0.2,3.2,0.6c1.9,0.7,3.5,2.3,4.2,4.2&#10;&#9;&#9;C126.6,123.8,126.8,125,126.8,126.1z M123,126.1c0-0.6-0.1-1.3-0.3-1.9c-0.2-0.6-0.5-1.1-0.8-1.5c-0.4-0.4-0.8-0.8-1.3-1&#10;&#9;&#9;c-0.5-0.3-1.1-0.4-1.7-0.4c-0.6,0-1.2,0.1-1.7,0.4c-0.5,0.2-1,0.6-1.3,1c-0.4,0.4-0.7,1-0.8,1.5c-0.4,1.2-0.4,2.6,0,3.8&#10;&#9;&#9;c0.2,0.6,0.5,1.1,0.8,1.5c0.4,0.4,0.8,0.8,1.3,1c0.5,0.2,1.1,0.4,1.7,0.4c0.6,0,1.2-0.1,1.7-0.4c0.5-0.2,1-0.6,1.3-1&#10;&#9;&#9;c0.4-0.4,0.7-1,0.9-1.5C122.9,127.5,123,126.8,123,126.1L123,126.1z" style="fill: rgb(81, 224, 147);"/>
	<path class="st0_radio-presenter-54 targetColor" d="M138.4,134l-5.9-10.2h-0.1l0.1,10.2h-3.4v-15.6h4l5.9,10.2l0,0l-0.1-10.2h3.4V134H138.4z" style="fill: rgb(81, 224, 147);"/>
	<path class="st0_radio-presenter-54 targetColor" d="M160,134l-1.1-3h-5.6l-1.1,3h-3.8l6.1-15.6h3.4l6,15.6H160z M156.1,122.6l-1.9,5.4h3.7L156.1,122.6z" style="fill: rgb(81, 224, 147);"/>
	<path class="st0_radio-presenter-54 targetColor" d="M165.1,134v-15.6h3.5V134H165.1z" style="fill: rgb(81, 224, 147);"/>
	<path class="st0_radio-presenter-54 targetColor" d="M179.5,134l-3.2-6.2h-1.2v6.2h-3.4v-15.6h5.6c0.7,0,1.3,0.1,2,0.2c0.6,0.1,1.3,0.4,1.8,0.8&#10;&#9;&#9;c0.5,0.4,1,0.9,1.3,1.4c0.3,0.7,0.5,1.5,0.5,2.2c0.1,1.9-1.1,3.7-3,4.2l3.8,6.7H179.5z M179.3,123.2c0-0.3-0.1-0.6-0.2-0.9&#10;&#9;&#9;c-0.1-0.2-0.3-0.4-0.6-0.5c-0.2-0.1-0.5-0.2-0.8-0.3c-0.3,0-0.5-0.1-0.8-0.1h-1.9v3.6h1.7c0.3,0,0.6,0,0.9-0.1&#10;&#9;&#9;c0.3,0,0.6-0.1,0.8-0.3c0.3-0.1,0.5-0.3,0.6-0.6C179.2,123.9,179.3,123.5,179.3,123.2L179.3,123.2z" style="fill: rgb(81, 224, 147);"/>
</g>
</svg>