<svg id="_0069_digital_content" xmlns="http://www.w3.org/2000/svg" xmlns:xlink="http://www.w3.org/1999/xlink" viewBox="0 0 500 500" data-imageid="advertising-5-71" imageName="Advertising 5" class="illustrations_image" style="width: 183px;"><defs><style>.cls-1_advertising-5-71{opacity:.57;}.cls-1_advertising-5-71,.cls-2_advertising-5-71,.cls-3_advertising-5-71,.cls-4_advertising-5-71,.cls-5_advertising-5-71,.cls-6_advertising-5-71,.cls-7_advertising-5-71,.cls-8_advertising-5-71,.cls-9_advertising-5-71,.cls-10_advertising-5-71,.cls-11_advertising-5-71,.cls-12_advertising-5-71,.cls-13_advertising-5-71,.cls-14_advertising-5-71{stroke-width:0px;}.cls-1_advertising-5-71,.cls-3_advertising-5-71,.cls-4_advertising-5-71{isolation:isolate;}.cls-1_advertising-5-71,.cls-4_advertising-5-71,.cls-12_advertising-5-71{fill:#fff;}.cls-2_advertising-5-71{fill:url(#linear-gradient);}.cls-3_advertising-5-71,.cls-4_advertising-5-71{opacity:.18;}.cls-3_advertising-5-71,.cls-14_advertising-5-71{fill:#68e1fd;}.cls-5_advertising-5-71{fill:url(#linear-gradient-4-advertising-5-71);}.cls-6_advertising-5-71{fill:url(#linear-gradient-2-advertising-5-71);}.cls-7_advertising-5-71{fill:url(#linear-gradient-3-advertising-5-71);}.cls-8_advertising-5-71{fill:url(#linear-gradient-7-advertising-5-71);}.cls-9_advertising-5-71{fill:url(#linear-gradient-5-advertising-5-71);}.cls-10_advertising-5-71{fill:url(#linear-gradient-6-advertising-5-71);}.cls-11_advertising-5-71{fill:#231f20;}.cls-13_advertising-5-71{fill:#ffb4a3;}</style><linearGradient id="linear-gradient-advertising-5-71" x1="234.08" y1="11.66" x2="232.12" y2="211.04" gradientUnits="userSpaceOnUse"><stop offset="0" stop-color="#231f20" stop-opacity="0"/><stop offset="1" stop-color="#231f20"/></linearGradient><linearGradient id="linear-gradient-2-advertising-5-71" x1="-39.37" y1="159.98" x2="149.59" y2="188.65" xlink:href="#linear-gradient-advertising-5-71"/><linearGradient id="linear-gradient-3-advertising-5-71" x1="187.61" y1="283.49" x2="560.96" y2="1079.08" xlink:href="#linear-gradient-advertising-5-71"/><linearGradient id="linear-gradient-4-advertising-5-71" x1="332.73" y1="146.73" x2="522.34" y2="469.92" xlink:href="#linear-gradient-advertising-5-71"/><linearGradient id="linear-gradient-5-advertising-5-71" x1="189.69" y1="185.26" x2="262.99" y2="468.7" xlink:href="#linear-gradient-advertising-5-71"/><linearGradient id="linear-gradient-6-advertising-5-71" x1="456.89" y1="1756.83" x2="458.23" y2="1571.41" gradientTransform="translate(-31 1955.13) scale(1 -1)" gradientUnits="userSpaceOnUse"><stop offset=".02" stop-color="#fff" stop-opacity="0"/><stop offset="1" stop-color="#fff"/></linearGradient><linearGradient id="linear-gradient-7-advertising-5-71" x1="456.04" y1="-174.09" x2="455.84" y2="-155.67" gradientTransform="translate(-31 600.5)" xlink:href="#linear-gradient-advertising-5-71"/></defs><path id="background_advertising-5-71" class="cls-3_advertising-5-71 targetColor" d="M72.92,230.6c-10.95,18.89-22.05,38.16-26.67,59.5-4.62,21.34-1.73,45.46,12.76,61.79,8.16,9.19,19.21,15.19,30.06,20.99,50.65,27.17,102.85,54.84,159.95,61.51,31.86,3.69,64.13.69,94.76-8.82,33.53-10.45,66.59-31,79.45-63.67,6.15-15.65,7.18-32.72,10.43-49.18,8.08-40.96,29.82-84.35,11.62-121.92-19.92-41.19-74.55-48.37-120.28-50.05-57.42-2.13-116.48-4.55-173.23,6.56-45.33,8.85-56.8,45.31-78.85,83.29Z" style="fill: rgb(99, 198, 109);"/><g id="screen_advertising-5-71"><path class="cls-14_advertising-5-71 targetColor" d="M452.07,50.33v242.94c0,8.04-6.5,14.56-14.54,14.57H29.81c-8.03.02-14.55-6.47-14.57-14.5,0,0,0,0,0,0V50.33c0-8.04,6.52-14.56,14.57-14.57h407.69c8.05,0,14.57,6.52,14.57,14.57Z" style="fill: rgb(99, 198, 109);"/><path class="cls-4_advertising-5-71" d="M435.39,261.97H133.27c-2.02,0-3.67-1.64-3.67-3.66h0c0-2.03,1.64-3.67,3.67-3.67h302.11c2.03,0,3.67,1.64,3.67,3.67h0c0,2.02-1.65,3.66-3.67,3.66Z"/><path class="cls-4_advertising-5-71" d="M442.03,97.86h-75.91c-2.02,0-3.66-1.65-3.66-3.67h0c0-2.02,1.64-3.65,3.66-3.66h75.91c2.02,0,3.67,1.64,3.67,3.66h0c0,2.02-1.65,3.66-3.67,3.66Z"/><path class="cls-4_advertising-5-71" d="M442.03,117.56h-75.91c-2.02,0-3.66-1.65-3.66-3.67h0c0-2.02,1.64-3.66,3.66-3.66h75.91c2.02,0,3.67,1.64,3.67,3.66h0c0,2.03-1.64,3.67-3.67,3.67Z"/><path class="cls-4_advertising-5-71" d="M442.03,137.23h-75.91c-2.02,0-3.66-1.65-3.66-3.67h0c0-2.02,1.64-3.66,3.66-3.66h75.91c2.02,0,3.67,1.64,3.67,3.66h0c0,2.03-1.64,3.67-3.67,3.67Z"/><path class="cls-4_advertising-5-71" d="M442.03,156.91h-75.91c-2.02,0-3.66-1.65-3.66-3.67h0c0-2.02,1.64-3.66,3.66-3.66h75.91c2.02,0,3.67,1.64,3.67,3.66h0c0,2.03-1.64,3.67-3.67,3.67Z"/><path class="cls-4_advertising-5-71" d="M442.03,176.61h-75.91c-2.02,0-3.66-1.65-3.66-3.67h0c0-2.02,1.64-3.66,3.66-3.66h75.91c2.02,0,3.67,1.64,3.67,3.66h0c0,2.03-1.64,3.67-3.67,3.67Z"/><path class="cls-4_advertising-5-71" d="M442.03,196.27h-75.91c-2.02,0-3.66-1.65-3.66-3.67h0c0-2.02,1.64-3.66,3.66-3.66h75.91c2.02,0,3.67,1.64,3.67,3.66h0c0,2.03-1.64,3.67-3.67,3.67Z"/><path class="cls-2_advertising-5-71" d="M452.07,50.33v8.54H15.24v-8.54c0-8.04,6.52-14.56,14.57-14.57h407.69c8.05,0,14.57,6.52,14.57,14.57Z"/><rect class="cls-1_advertising-5-71" x="130.32" y="78.18" width="210.98" height="164.39"/><rect class="cls-1_advertising-5-71" x="27.02" y="78.18" width="92.15" height="87.42"/><rect class="cls-1_advertising-5-71" x="27.02" y="175.72" width="92.15" height="87.42"/><path class="cls-6_advertising-5-71" d="M48.2,35.76c-2.25,0-21.18.66-21.18,23.09v248.71c-6.84-1.34-11.77-7.33-11.78-14.3V50.33c0-8.04,6.52-14.56,14.57-14.57h18.39Z"/></g><g id="shadow_advertising-5-71"><path class="cls-7_advertising-5-71" d="M395.4,394.38c5.73-.75,9.19-10.31-49.31-7.95-28.45-2.33-56.96-2.35-85.48-2.36-71.72-.05-169.3,4.74-241.01,4.7-4.27,0-10.45,2.85-8.27,6.56.84,1.42,2.63,1.93,4.27,2.3,86.26,19.71,202.06,8.69,289.88,19.58,18.1.92,25.1,7.93-2.08,25.19,6.67,18.1,29.31,18.08,36.72,18.02l128.36-1.05c5.69-.05,11.7-.17,16.65-3.01s8.27-9.37,5.61-14.42c-2.38-4.51-8.13-5.85-13.2-6.4-23.05-2.39-46.32,2.13-69.43.71-20.41-1.31-36.95-8.74-55.67-15.83-9.26-3.51-14.85-18.55,42.97-26.05Z"/><path class="cls-5_advertising-5-71" d="M452.07,196.43v96.84c0,8.04-6.5,14.56-14.54,14.57h-102.58v-96.26c0-7.79,5.88-14.31,13.62-15.12-.71-.82-1.36-1.66-1.98-2.53-4.18-5.74-11.46-19.09-9.25-26.46.63-2.08,2.46-3.91,4.62-3.93,2.67,0,4.6,2.48,6.05,4.72l6.23,9.57c1.42,2.21,2.94,4.48,5.16,5.9,4.33,2.77,10.32,1.42,14.35-1.75,4.03-3.17,6.54-7.89,8.94-12.44l5.41-10.26c.55-1.24,1.35-2.35,2.33-3.27.78-.5,1.52-1.05,2.23-1.64.88-.95,1.12-2.31,1.32-3.6l2.3-14.76c.53-3.34,1.08-6.78,2.85-9.65,1.76-2.87,5.1-5.06,8.42-4.46,3.05.55,5.31,3.31,6.22,6.28.9,2.97.71,6.14.45,9.25l-1.17,16.06,3.13-.3c1.51,3.99-.79,8.34-.98,12.61-.23,4.98,2.28,10.53-.63,14.56-1.96,2.72-6.01,3.97-6.7,7.25-.52,2.48,1.22,5.14.31,7.5-.18.47-.45.9-.78,1.28h43.33c.44-.01.89,0,1.33.05Z"/></g><g id="character_2_advertising-5-71"><path class="cls-11_advertising-5-71" d="M259,184.82c.03,2.91-.25,5.81-.83,8.66-1.17,4.82-4.02,9.06-6.82,13.16-2.69-3.73-7.07-5.87-11.67-5.69-6.62-.27-13.17.78-19.71,2.07-10.11,1.98-20.17,4.51-30.36,3.59-5.16-.47-10.22-1.81-15.4-2-10.06-.38-19.68,3.61-29.28,6.65-1.51.48-3.64.65-4.19-.83-.17-.66-.12-1.36.14-1.98,1.68-5.44,2.9-11.01,3.65-16.66,1.11-9.59.14-19.28-.84-28.89-1.06-10.48-2.13-20.96-3.62-31.39-1.54-10.78-3.51-22-.25-32.39.79-2.85,2.25-5.46,4.27-7.63,1.7-1.58,3.64-2.88,5.75-3.86,4.02-2.13,8.28-3.76,12.69-4.85,3.86-.8,7.78-1.32,11.72-1.56l20.26-1.7c5.24-.44,10.56-.87,15.71.14,5.57,1.13,10.68,3.9,14.66,7.95.64.65,1.33,1.38,2.23,1.47.75,0,1.49-.2,2.13-.6,6.05-2.9,12.61-2.85,18.92-.89,5.92,1.84,7.34,6.17,7.56,12.19.16,3.76.23,7.51.23,11.26,0,11.71-.71,23.41-2.13,35.04-.83,6.76-1.87,13.82.51,20.2,1.12,2.99,2.96,5.69,3.88,8.74s.85,6.51.79,9.8Z"/><path class="cls-11_advertising-5-71" d="M259,184.82c.03,2.91-.25,5.81-.83,8.66-1.17,4.82-4.02,9.06-6.82,13.16-2.69-3.73-7.07-5.87-11.67-5.69-6.62-.27-13.17.78-19.71,2.07l-24.31-7.63,5.31-39.71,22.45-51.63s23.83-11.93,29.39-2.59c1.06,1.78,2.13,5.21,3.15,9.62,0,11.71-.71,23.41-2.13,35.04-.83,6.76-1.87,13.82.51,20.2,1.12,2.99,2.96,5.69,3.88,8.74.92,3.05.85,6.47.79,9.76Z"/><path class="cls-14_advertising-5-71 targetColor" d="M144.54,200.12l-14.23,7.52v34.94h156.5s-14.44-40.89-72.76-44.86c-38.92-2.62-34.21-2.92-48.88-2.8-7.19.05-14.27,1.84-20.63,5.2Z" style="fill: rgb(99, 198, 109);"/><path class="cls-9_advertising-5-71" d="M135.74,242.58s3.93-29.78,35.49-34.22c31.56-4.43,69.46,4.71,74.9,7.62,27.8,14.85,26.92,26.6,26.92,26.6h-137.3Z"/><path class="cls-13_advertising-5-71" d="M225.35,186.77c-6.89,0-11.56-.11-14.75.06-5.69.32-6.64,1.54-6.95,5.77-.41,5.55,6.84,21.23,4.5,27.15-.38,1.12-1.32,1.95-2.48,2.18,0,0-27.57,0-46.64-26.55,0,0,13.44-13.34,12.19-32.26-1.24-18.91-8.03-49.94-1.27-53.27,6.76-3.34,66-16.47,74.89,7.34,8.89,23.82-.21,69.63-19.49,69.58Z"/><path class="cls-11_advertising-5-71" d="M194.8,119.44c-2.49,6.4-2.18,13.67-2.67,20.63-.49,6.96-2.23,14.57-7.3,18.49-1.14.88-2.45,1.56-3.32,2.78-2.23,3.09-.71,7.74-1.25,11.71-1.02,7.48-8.77,10.76-12.74,16.8-2.43,3.7-3.39,8.44-5.73,12.21-2.34,3.77-7.21,6.36-10.36,3.47-1.62-1.49-2.26-3.96-2.77-6.27-6.37-28.65-8.27-58.12-5.65-87.35.95-10.56,3.36-22.53,11.53-27.49,3.22-1.96,6.93-2.51,10.55-3.04,20.88-3.02,43.64-5.61,61.55,7.11,1.65,1.17,3.3,2.55,4.11,4.56,4.2,10.45-12.39,9.84-16.7,10.93-7.87,1.94-15.79,6.62-19.23,15.45Z"/><path class="cls-13_advertising-5-71" d="M208.15,219.76c-.71.22-1.46.22-2.17,0-1.47-.43-2.5-1.71-3.41-2.94-4.63-6.2-8.96-13.03-9.87-20.72-.35-2.96-.06-6.27,2.02-8.41,1.67-1.71,4.16-2.33,6.54-2.6,2.26-.26,1.79.19,6.76.46.9.05,9.5.62,10.31,1.17-12.89.18-14.38,1.64-14.7,5.87-.41,5.58,6.84,21.27,4.5,27.19Z"/><path class="cls-13_advertising-5-71" d="M273.05,242.58s10.09-19.31,16.36-20.63c6.27-1.32,8.29-6.3,12.63-7.32s4.83,2.23,5.75,9.61-5.64,18.35-5.64,18.35h-29.1Z"/></g><g id="phone_advertising-5-71"><path class="cls-11_advertising-5-71" d="M467.56,436.66h-100.63c-2.93,0-1.82,10.74-4.15,9.3-.48-.3-7.11-7.54-7.58-7.89-3.56-2.78-3.47-11.75-3.47-16.61v-170.12c0-8.39,6.8-15.2,15.19-15.2h100.64c10.47.4,13.47,7.69,13.61,8.42.14.73,6.72,12.46,6.72,13.25l-5.13,163.66c0,8.39-6.8,15.2-15.19,15.2h0Z"/><rect class="cls-14_advertising-5-71 targetColor" x="359.79" y="251.57" width="131" height="200.53" rx="15.2" ry="15.2" style="fill: rgb(99, 198, 109);"/><rect class="cls-10_advertising-5-71" x="368.18" y="274.07" width="117.61" height="151.08" rx="12.51" ry="12.51"/><rect class="cls-14_advertising-5-71 targetColor" x="409.62" y="431.9" width="30.6" height="10.51" rx="5.25" ry="5.25" style="fill: rgb(99, 198, 109);"/><rect class="cls-8_advertising-5-71" x="409.62" y="431.9" width="30.6" height="10.51" rx="5.25" ry="5.25"/><rect class="cls-14_advertising-5-71 targetColor" x="373.74" y="289.31" width="106.1" height="35.12" rx="7.53" ry="7.53" style="fill: rgb(99, 198, 109);"/><rect class="cls-14_advertising-5-71 targetColor" x="396.12" y="332.55" width="76.04" height="5.56" rx="2.35" ry="2.35" style="fill: rgb(99, 198, 109);"/><rect class="cls-14_advertising-5-71 targetColor" x="396.12" y="355.96" width="76.04" height="5.56" rx="2.35" ry="2.35" style="fill: rgb(99, 198, 109);"/><rect class="cls-14_advertising-5-71 targetColor" x="396.12" y="379.38" width="76.04" height="5.56" rx="2.35" ry="2.35" style="fill: rgb(99, 198, 109);"/><rect class="cls-14_advertising-5-71 targetColor" x="396.12" y="401.87" width="76.04" height="5.56" rx="2.35" ry="2.35" style="fill: rgb(99, 198, 109);"/></g><g id="character_1_advertising-5-71"><path class="cls-11_advertising-5-71" d="M362.17,324.43s1.79,1.69,1.96,3.6c.27,1.97.64,3.93,1.1,5.86l-18.59,9.47s-3.07-4.41-.89-8.25c2.18-3.84,8.39-8.74,8.54-10.46l7.89-.22Z"/><polygon class="cls-13_advertising-5-71" points="353.36 319.28 354.62 326.29 362.04 325.45 360.83 318.22 353.36 319.28"/><path class="cls-11_advertising-5-71" d="M379.44,207.63s-33.87,1.34-39.36,6.99c-5.49,5.65-30.02,74.69-30.02,74.69l12.01,4.5s24.97-48.95,27-51.22,28.99-1.54,38.02-4.92c9.03-3.38,18.77-13.41,18.77-13.41l-26.43-16.63Z"/><path class="cls-11_advertising-5-71" d="M315.33,298.05s.77,2.35,0,4.1c-.71,1.86-1.32,3.76-1.84,5.69l-20.86-.59s-.58-5.34,3.17-7.67,11.56-3.66,12.53-5.08l7,3.55Z"/><polygon class="cls-13_advertising-5-71" points="310.07 289.31 307.82 296.07 314.74 298.89 319.19 292.73 310.07 289.31"/><path class="cls-12_advertising-5-71" d="M400.06,163.13l-20.63,44.5s8.71,18.49,26.43,16.6l6-1.31,12.24-30.32,9.75-23.35s.16-8.74-6.51-9.16c-6.67-.42-16.76-7.97-27.28,3.04Z"/><path class="cls-11_advertising-5-71" d="M351.26,245.72l34.09-29.74,26.52,6.94s-4.66,24.65-13.37,29.17c-8.71,4.52-30.32,12.73-30.32,12.73l-5.33,55.32-9.43.46s-8.83-61.94-7.33-65.97c1.5-4.03,5.17-8.91,5.17-8.91Z"/><path class="cls-12_advertising-5-71" d="M430.34,161.03s4.63,2.48,6.8,10.76c2.17,8.28,4.89,24.48,4.89,24.48l-14.64,7.36-3.29-24.9s-.4-13.58,6.25-17.71Z"/><path class="cls-13_advertising-5-71" d="M439.04,248.05l-11.64-44.41,11.77-5.93s8.44,48.73,8.96,49.23,6.13,3.08,12.53,5.15c7.17,2.31,1.09,3.02-5.04,3.19-6.13.17-14.65,1.2-16.58-7.24Z"/><path class="cls-13_advertising-5-71" d="M410.24,128.13s-4.87,11.5-6.1,11.87c-1.24.37,1.33,2.4,1.33,2.4,0,0-.1,3.08,0,4.27.1,1.19,1.76,2.13,4.52,2.48,2.77.34-.71,9.4-.71,9.4,0,0-1.49,3.56,8.76.92l2.8-.33s7.53-22.96,7.45-25.61c-.07-2.65-12.73-14.05-18.05-5.39Z"/><path class="cls-11_advertising-5-71" d="M404.54,116.95c-.92,1.44-1,3.26-.21,4.77.51.69.99,1.4,1.42,2.13.16.53.37,1.04.63,1.53.55.87,1.62,1,2.57,1.07l5.26.36c1.36-.03,2.7.3,3.9.95,2.45,1.59,2.94,5.48,2.25,8.6-.31,1.37-.65,3.14.39,3.91.07-.64.29-1.25.65-1.79.32-.49.97-.63,1.47-.32h0l.07.05c.2.22.33.5.38.79.35,1.53-.31,3.11-1.64,3.95-.39.21-.86.36-1.07.79-.41.82.45,1.66,1.03,2.33.99,1.2,1.37,2.79,1.02,4.31,2.4-1.3,2.85-4.9,4.04-7.59s3.68-4.98,3.99-8.11c.18-1.75-.39-3.48-1.56-4.79-.4-.32-.71-.75-.87-1.24,0-.59.1-1.17.31-1.71.34-1.79-1.2-3.28-2.6-4.17-.48-.24-.88-.62-1.15-1.09-1.22-2.6-1.03-3.68-3.96-4.48-1.69-.51-3.47-.65-5.22-.41-2.5.39-3.44.71-5.76-.53-1.88-.99-3.91-1.38-5.33.72Z"/><path class="cls-12_advertising-5-71" d="M409.23,158.53s-9.9,1.18-18.12,10.73c-8.22,9.55-9.56,8.65-9.56,8.65l7.55,8.87s10.26-24.06,20.14-28.25Z"/><path class="cls-13_advertising-5-71" d="M389.11,186.78l-4.62,10.94s-8.45,5.8-18.37-1.42c-9.92-7.23-14.85-33.92-14.85-33.92,0,0-5.09-5.03-9.96-6.63-4.87-1.6,4.79-4.19,9.96-2.34,5.16,1.85,6.05,1.3,6.05,1.3,0,0,2.43-2.45,3.78-1.94,1.35.51-2.45,7.33-2.45,7.33,0,0,6.93,25.54,12.21,26.68,5.28,1.15,8.81,1.07,11.29-2.13l2.47-3.19,4.49,5.33Z"/></g></svg>